<svg xmlns="http://www.w3.org/2000/svg" xmlns:xlink="http://www.w3.org/1999/xlink"><style>:root>svg{display:none}:root>svg:target{display:block}</style><svg viewBox="0 0 97 13" fill-rule="evenodd" clip-rule="evenodd" stroke-linejoin="round" stroke-miterlimit="1.414" id="addr-ctry" xmlns="http://www.w3.org/2000/svg"><path d="M1.065 1.275H5.49c1.11.0 2.095.22 2.955.66a4.851 4.851.0 0 1 2.003 1.853c.475.795.712 1.707.712 2.737s-.237 1.943-.712 2.738a4.85 4.85.0 0 1-2.003 1.852c-.86.44-1.845.66-2.955.66H1.065v-10.5zM5.4 10.47c.85.0 1.598-.165 2.243-.495a3.576 3.576.0 0 0 1.492-1.387c.35-.595.525-1.283.525-2.063.0-.78-.175-1.467-.525-2.062a3.578 3.578.0 0 0-1.492-1.388C6.998 2.745 6.25 2.58 5.4 2.58H2.565v7.89H5.4zM20.43 7.845c0 .11-.01.255-.03.435h-6.45c.09.7.398 1.263.923 1.688.525.425 1.177.637 1.957.637.95.0 1.715-.32 2.295-.96l.795.93c-.36.42-.807.74-1.342.96-.535.22-1.133.33-1.793.33-.84.0-1.585-.172-2.235-.517A3.69 3.69.0 0 1 13.043 9.9c-.355-.62-.533-1.32-.533-2.1.0-.77.173-1.465.518-2.085.345-.62.82-1.102 1.425-1.447.605-.345 1.287-.518 2.047-.518.76.0 1.438.173 2.033.518.595.345 1.06.827 1.395 1.447.335.62.502 1.33.502 2.13zm-3.93-2.88c-.69.0-1.267.21-1.732.63-.465.42-.738.97-.818 1.65h5.1c-.08-.67-.352-1.217-.817-1.642-.465-.425-1.043-.638-1.733-.638zM29.835 3.825v7.95H28.47v-1.2c-.29.41-.672.728-1.147.953a3.582 3.582.0 0 1-1.553.337c-1.06.0-1.895-.292-2.505-.877-.61-.585-.915-1.448-.915-2.588V3.825h1.44v4.41c0 .77.185 1.353.555 1.748.37.395.9.592 1.59.592.76.0 1.36-.23 1.8-.69.44-.46.66-1.11.66-1.95v-4.11h1.44zM37.05 11.31c-.21.18-.47.318-.78.413-.31.095-.63.142-.96.142-.8.0-1.42-.215-1.86-.645-.44-.43-.66-1.045-.66-1.845V5.01h-1.35V3.825h1.35v-1.74h1.44v1.74h2.28V5.01h-2.28v4.305c0 .43.108.76.323.99.215.23.522.345.922.345.44.0.815-.125 1.125-.375l.45 1.035zM41.07 11.865c-.65.0-1.275-.087-1.875-.262-.6-.175-1.07-.398-1.41-.668l.6-1.14c.35.25.775.45 1.275.6.5.15 1.005.225 1.515.225 1.26.0 1.89-.36 1.89-1.08a.7.7.0 0 0-.255-.57 1.612 1.612.0 0 0-.637-.307 14.601 14.601.0 0 0-1.088-.218c-.64-.1-1.162-.215-1.567-.345a2.417 2.417.0 0 1-1.043-.66c-.29-.31-.435-.745-.435-1.305.0-.72.3-1.297.9-1.732.6-.435 1.405-.653 2.415-.653.53.0 1.06.065 1.59.195s.965.305 1.305.525l-.615 1.14c-.65-.42-1.415-.63-2.295-.63-.61.0-1.075.1-1.395.3-.32.2-.48.465-.48.795.0.26.09.465.27.615.18.15.403.26.668.33s.637.15 1.117.24c.64.11 1.158.228 1.553.353.395.125.732.337 1.012.637s.42.72.42 1.26c0 .72-.307 1.293-.922 1.718-.615.425-1.453.637-2.513.637zM49.77 11.865c-.81.0-1.532-.175-2.167-.525a3.847 3.847.0 0 1-1.493-1.447c-.36-.615-.54-1.313-.54-2.093s.18-1.477.54-2.092a3.795 3.795.0 0 1 1.493-1.44c.635-.345 1.357-.518 2.167-.518.72.0 1.363.145 1.928.435.565.29 1.002.71 1.312 1.26l-1.095.705c-.25-.38-.56-.665-.93-.855-.37-.19-.78-.285-1.23-.285-.52.0-.987.115-1.402.345a2.46 2.46.0 0 0-.975.983c-.235.425-.353.912-.353 1.462.0.56.118 1.053.353 1.478.235.425.56.752.975.982.415.23.882.345 1.402.345.45.0.86-.095 1.23-.285.37-.19.68-.475.93-.855l1.095.69c-.31.55-.747.973-1.312 1.268-.565.295-1.208.442-1.928.442zM59.01 3.75c1.01.0 1.813.293 2.408.878s.892 1.442.892 2.572v4.575h-1.44v-4.41c0-.77-.185-1.35-.555-1.74-.37-.39-.9-.585-1.59-.585-.78.0-1.395.228-1.845.683-.45.455-.675 1.107-.675 1.957v4.095h-1.44V.645h1.44V4.95c.3-.38.693-.675 1.178-.885a4.053 4.053.0 0 1 1.627-.315zM64.98.645h1.44v11.13h-1.44zM72.06 3.75c1.1.0 1.943.27 2.528.81s.877 1.345.877 2.415v4.8H74.1v-1.05c-.24.37-.582.653-1.027.848-.445.195-.973.292-1.583.292-.89.0-1.602-.215-2.137-.645-.535-.43-.803-.995-.803-1.695.0-.7.255-1.262.765-1.687.51-.425 1.32-.638 2.43-.638h2.28v-.285c0-.62-.18-1.095-.54-1.425-.36-.33-.89-.495-1.59-.495-.47.0-.93.078-1.38.233-.45.155-.83.362-1.14.622l-.6-1.08c.41-.33.9-.582 1.47-.757a6.151 6.151.0 0 1 1.815-.263zm-.33 7.005c.55.0 1.025-.122 1.425-.367.4-.245.69-.593.87-1.043v-1.11h-2.22c-1.22.0-1.83.41-1.83 1.23.0.4.155.715.465.945.31.23.74.345 1.29.345zM82.38 3.75c1.01.0 1.813.293 2.408.878s.892 1.442.892 2.572v4.575h-1.44v-4.41c0-.77-.185-1.35-.555-1.74-.37-.39-.9-.585-1.59-.585-.78.0-1.395.228-1.845.683-.45.455-.675 1.107-.675 1.957v4.095h-1.44v-7.95h1.38v1.2a2.8 2.8.0 0 1 1.178-.945c.495-.22 1.057-.33 1.687-.33zM95.895.645v11.13h-1.38v-1.26c-.32.44-.725.775-1.215 1.005-.49.23-1.03.345-1.62.345-.77.0-1.46-.17-2.07-.51a3.652 3.652.0 0 1-1.432-1.432c-.345-.615-.518-1.323-.518-2.123.0-.8.173-1.505.518-2.115A3.667 3.667.0 0 1 89.61 4.26c.61-.34 1.3-.51 2.07-.51.57.0 1.095.108 1.575.323.48.215.88.532 1.2.952V.645h1.44zm-4.095 9.96c.5.0.955-.117 1.365-.352.41-.235.73-.565.96-.99.23-.425.345-.913.345-1.463s-.115-1.037-.345-1.462a2.424 2.424.0 0 0-.96-.983A2.742 2.742.0 0 0 91.8 5.01c-.51.0-.967.115-1.372.345-.405.23-.725.558-.96.983-.235.425-.353.912-.353 1.462.0.55.118 1.038.353 1.463.235.425.555.755.96.99.405.235.862.352 1.372.352z" fill="#323232" fill-rule="nonzero"/></svg><svg viewBox="0 0 97 13" fill-rule="evenodd" clip-rule="evenodd" stroke-linejoin="round" stroke-miterlimit="1.414" id="addr-ctry-de" xmlns="http://www.w3.org/2000/svg"><path d="M1.065 1.275H5.49c1.11.0 2.095.22 2.955.66a4.851 4.851.0 0 1 2.003 1.853c.475.795.712 1.707.712 2.737s-.237 1.943-.712 2.738a4.85 4.85.0 0 1-2.003 1.852c-.86.44-1.845.66-2.955.66H1.065v-10.5zM5.4 10.47c.85.0 1.598-.165 2.243-.495a3.576 3.576.0 0 0 1.492-1.387c.35-.595.525-1.283.525-2.063.0-.78-.175-1.467-.525-2.062a3.578 3.578.0 0 0-1.492-1.388C6.998 2.745 6.25 2.58 5.4 2.58H2.565v7.89H5.4zM20.43 7.845c0 .11-.01.255-.03.435h-6.45c.09.7.398 1.263.923 1.688.525.425 1.177.637 1.957.637.95.0 1.715-.32 2.295-.96l.795.93c-.36.42-.807.74-1.342.96-.535.22-1.133.33-1.793.33-.84.0-1.585-.172-2.235-.517A3.69 3.69.0 0 1 13.043 9.9c-.355-.62-.533-1.32-.533-2.1.0-.77.173-1.465.518-2.085.345-.62.82-1.102 1.425-1.447.605-.345 1.287-.518 2.047-.518.76.0 1.438.173 2.033.518.595.345 1.06.827 1.395 1.447.335.62.502 1.33.502 2.13zm-3.93-2.88c-.69.0-1.267.21-1.732.63-.465.42-.738.97-.818 1.65h5.1c-.08-.67-.352-1.217-.817-1.642-.465-.425-1.043-.638-1.733-.638zM29.835 3.825v7.95H28.47v-1.2c-.29.41-.672.728-1.147.953a3.582 3.582.0 0 1-1.553.337c-1.06.0-1.895-.292-2.505-.877-.61-.585-.915-1.448-.915-2.588V3.825h1.44v4.41c0 .77.185 1.353.555 1.748.37.395.9.592 1.59.592.76.0 1.36-.23 1.8-.69.44-.46.66-1.11.66-1.95v-4.11h1.44zM37.05 11.31c-.21.18-.47.318-.78.413-.31.095-.63.142-.96.142-.8.0-1.42-.215-1.86-.645-.44-.43-.66-1.045-.66-1.845V5.01h-1.35V3.825h1.35v-1.74h1.44v1.74h2.28V5.01h-2.28v4.305c0 .43.108.76.323.99.215.23.522.345.922.345.44.0.815-.125 1.125-.375l.45 1.035zM41.07 11.865c-.65.0-1.275-.087-1.875-.262-.6-.175-1.07-.398-1.41-.668l.6-1.14c.35.25.775.45 1.275.6.5.15 1.005.225 1.515.225 1.26.0 1.89-.36 1.89-1.08a.7.7.0 0 0-.255-.57 1.612 1.612.0 0 0-.637-.307 14.601 14.601.0 0 0-1.088-.218c-.64-.1-1.162-.215-1.567-.345a2.417 2.417.0 0 1-1.043-.66c-.29-.31-.435-.745-.435-1.305.0-.72.3-1.297.9-1.732.6-.435 1.405-.653 2.415-.653.53.0 1.06.065 1.59.195s.965.305 1.305.525l-.615 1.14c-.65-.42-1.415-.63-2.295-.63-.61.0-1.075.1-1.395.3-.32.2-.48.465-.48.795.0.26.09.465.27.615.18.15.403.26.668.33s.637.15 1.117.24c.64.11 1.158.228 1.553.353.395.125.732.337 1.012.637s.42.72.42 1.26c0 .72-.307 1.293-.922 1.718-.615.425-1.453.637-2.513.637zM49.77 11.865c-.81.0-1.532-.175-2.167-.525a3.847 3.847.0 0 1-1.493-1.447c-.36-.615-.54-1.313-.54-2.093s.18-1.477.54-2.092a3.795 3.795.0 0 1 1.493-1.44c.635-.345 1.357-.518 2.167-.518.72.0 1.363.145 1.928.435.565.29 1.002.71 1.312 1.26l-1.095.705c-.25-.38-.56-.665-.93-.855-.37-.19-.78-.285-1.23-.285-.52.0-.987.115-1.402.345a2.46 2.46.0 0 0-.975.983c-.235.425-.353.912-.353 1.462.0.56.118 1.053.353 1.478.235.425.56.752.975.982.415.23.882.345 1.402.345.45.0.86-.095 1.23-.285.37-.19.68-.475.93-.855l1.095.69c-.31.55-.747.973-1.312 1.268-.565.295-1.208.442-1.928.442zM59.01 3.75c1.01.0 1.813.293 2.408.878s.892 1.442.892 2.572v4.575h-1.44v-4.41c0-.77-.185-1.35-.555-1.74-.37-.39-.9-.585-1.59-.585-.78.0-1.395.228-1.845.683-.45.455-.675 1.107-.675 1.957v4.095h-1.44V.645h1.44V4.95c.3-.38.693-.675 1.178-.885a4.053 4.053.0 0 1 1.627-.315zM64.98.645h1.44v11.13h-1.44zM72.06 3.75c1.1.0 1.943.27 2.528.81s.877 1.345.877 2.415v4.8H74.1v-1.05c-.24.37-.582.653-1.027.848-.445.195-.973.292-1.583.292-.89.0-1.602-.215-2.137-.645-.535-.43-.803-.995-.803-1.695.0-.7.255-1.262.765-1.687.51-.425 1.32-.638 2.43-.638h2.28v-.285c0-.62-.18-1.095-.54-1.425-.36-.33-.89-.495-1.59-.495-.47.0-.93.078-1.38.233-.45.155-.83.362-1.14.622l-.6-1.08c.41-.33.9-.582 1.47-.757a6.151 6.151.0 0 1 1.815-.263zm-.33 7.005c.55.0 1.025-.122 1.425-.367.4-.245.69-.593.87-1.043v-1.11h-2.22c-1.22.0-1.83.41-1.83 1.23.0.4.155.715.465.945.31.23.74.345 1.29.345zM82.38 3.75c1.01.0 1.813.293 2.408.878s.892 1.442.892 2.572v4.575h-1.44v-4.41c0-.77-.185-1.35-.555-1.74-.37-.39-.9-.585-1.59-.585-.78.0-1.395.228-1.845.683-.45.455-.675 1.107-.675 1.957v4.095h-1.44v-7.95h1.38v1.2a2.8 2.8.0 0 1 1.178-.945c.495-.22 1.057-.33 1.687-.33zM95.895.645v11.13h-1.38v-1.26c-.32.44-.725.775-1.215 1.005-.49.23-1.03.345-1.62.345-.77.0-1.46-.17-2.07-.51a3.652 3.652.0 0 1-1.432-1.432c-.345-.615-.518-1.323-.518-2.123.0-.8.173-1.505.518-2.115A3.667 3.667.0 0 1 89.61 4.26c.61-.34 1.3-.51 2.07-.51.57.0 1.095.108 1.575.323.48.215.88.532 1.2.952V.645h1.44zm-4.095 9.96c.5.0.955-.117 1.365-.352.41-.235.73-.565.96-.99.23-.425.345-.913.345-1.463s-.115-1.037-.345-1.462a2.424 2.424.0 0 0-.96-.983A2.742 2.742.0 0 0 91.8 5.01c-.51.0-.967.115-1.372.345-.405.23-.725.558-.96.983-.235.425-.353.912-.353 1.462.0.55.118 1.038.353 1.463.235.425.555.755.96.99.405.235.862.352 1.372.352z" fill="#323232" fill-rule="nonzero"/></svg><svg viewBox="0 0 70 14" fill-rule="evenodd" clip-rule="evenodd" stroke-linejoin="round" stroke-miterlimit="1.414" id="addr-ctry-en" xmlns="http://www.w3.org/2000/svg"><path d="M8.34 5.465h1.44V9.56a5.59 5.59.0 0 1-1.815.99c-.69.23-1.41.345-2.16.345-1.06.0-2.015-.232-2.865-.697a5.17 5.17.0 0 1-2.002-1.92C.453 7.463.21 6.545.21 5.525s.243-1.94.728-2.76a5.089 5.089.0 0 1 2.01-1.92c.855-.46 1.817-.69 2.887-.69.84.0 1.603.138 2.288.413A4.667 4.667.0 0 1 9.87 1.775l-.93.93C8.1 1.895 7.085 1.49 5.895 1.49c-.8.0-1.517.173-2.152.518a3.795 3.795.0 0 0-1.493 1.44c-.36.615-.54 1.307-.54 2.077.0.76.18 1.448.54 2.063.36.615.858 1.097 1.493 1.447.635.35 1.347.525 2.137.525.94.0 1.76-.225 2.46-.675v-3.42zM19.62 6.845c0 .11-.01.255-.03.435h-6.45c.09.7.398 1.263.923 1.688.525.425 1.177.637 1.957.637.95.0 1.715-.32 2.295-.96l.795.93c-.36.42-.807.74-1.342.96-.535.22-1.133.33-1.793.33-.84.0-1.585-.172-2.235-.517A3.69 3.69.0 0 1 12.233 8.9c-.355-.62-.533-1.32-.533-2.1.0-.77.173-1.465.518-2.085.345-.62.82-1.102 1.425-1.447.605-.345 1.287-.518 2.047-.518.76.0 1.438.173 2.033.518.595.345 1.06.827 1.395 1.447.335.62.502 1.33.502 2.13zm-3.93-2.88c-.69.0-1.267.21-1.732.63-.465.42-.738.97-.818 1.65h5.1c-.08-.67-.352-1.217-.817-1.642-.465-.425-1.043-.638-1.733-.638zM22.995 4.16c.25-.46.62-.81 1.11-1.05.49-.24 1.085-.36 1.785-.36v1.395c-.08-.01-.19-.015-.33-.015-.78.0-1.392.233-1.837.698-.445.465-.668 1.127-.668 1.987v3.96h-1.44v-7.95h1.38V4.16zM37.605 2.75c1 0 1.793.29 2.378.87.585.58.877 1.44.877 2.58v4.575h-1.44v-4.41c0-.77-.177-1.35-.532-1.74-.355-.39-.863-.585-1.523-.585-.73.0-1.31.228-1.74.683-.43.455-.645 1.107-.645 1.957v4.095h-1.44v-4.41c0-.77-.177-1.35-.532-1.74-.355-.39-.863-.585-1.523-.585-.73.0-1.31.228-1.74.683-.43.455-.645 1.107-.645 1.957v4.095h-1.44v-7.95h1.38V4.01c.29-.41.67-.722 1.14-.937.47-.215 1.005-.323 1.605-.323.62.0 1.17.125 1.65.375s.85.615 1.11 1.095c.3-.46.718-.82 1.253-1.08.535-.26 1.137-.39 1.807-.39zm8.805.0c1.1.0 1.943.27 2.528.81s.877 1.345.877 2.415v4.8H48.45v-1.05c-.24.37-.582.653-1.027.848-.445.195-.973.292-1.583.292-.89.0-1.602-.215-2.137-.645-.535-.43-.803-.995-.803-1.695.0-.7.255-1.262.765-1.687.51-.425 1.32-.638 2.43-.638h2.28v-.285c0-.62-.18-1.095-.54-1.425-.36-.33-.89-.495-1.59-.495-.47.0-.93.078-1.38.233-.45.155-.83.362-1.14.622l-.6-1.08c.41-.33.9-.582 1.47-.757a6.151 6.151.0 0 1 1.815-.263zm-.33 7.005c.55.0 1.025-.122 1.425-.367.4-.245.69-.593.87-1.043v-1.11h-2.22c-1.22.0-1.83.41-1.83 1.23.0.4.155.715.465.945.31.23.74.345 1.29.345zM56.73 2.75c1.01.0 1.813.293 2.408.878s.892 1.442.892 2.572v4.575h-1.44v-4.41c0-.77-.185-1.35-.555-1.74-.37-.39-.9-.585-1.59-.585-.78.0-1.395.228-1.845.683-.45.455-.675 1.107-.675 1.957v4.095h-1.44v-7.95h1.38v1.2a2.8 2.8.0 0 1 1.178-.945c.495-.22 1.057-.33 1.687-.33zM69.585 2.825 65.73 11.57c-.34.81-.737 1.38-1.192 1.71-.455.33-1.003.495-1.643.495-.39.0-.767-.062-1.132-.187a2.328 2.328.0 0 1-.908-.548l.615-1.08c.41.39.885.585 1.425.585.35.0.643-.092.878-.277.235-.185.447-.503.637-.953l.255-.555-3.51-7.935h1.5l2.775 6.36 2.745-6.36h1.41z" fill="#323232" fill-rule="nonzero"/></svg><svg viewBox="0 0 126 13" fill-rule="evenodd" clip-rule="evenodd" stroke-linejoin="round" stroke-miterlimit="1.414" id="addr-cty" xmlns="http://www.w3.org/2000/svg"><path d="M9.34 6.465h1.44v4.095a5.59 5.59.0 0 1-1.815.99c-.69.23-1.41.345-2.16.345-1.06.0-2.015-.232-2.865-.697a5.17 5.17.0 0 1-2.002-1.92c-.485-.815-.728-1.733-.728-2.753s.243-1.94.728-2.76a5.089 5.089.0 0 1 2.01-1.92c.855-.46 1.817-.69 2.887-.69.84.0 1.603.138 2.288.413a4.667 4.667.0 0 1 1.747 1.207l-.93.93C9.1 2.895 8.085 2.49 6.895 2.49c-.8.0-1.517.173-2.152.518a3.795 3.795.0 0 0-1.493 1.44c-.36.615-.54 1.307-.54 2.077.0.76.18 1.448.54 2.063.36.615.858 1.097 1.493 1.447.635.35 1.347.525 2.137.525.94.0 1.76-.225 2.46-.675v-3.42zM14.815 5.16c.25-.46.62-.81 1.11-1.05.49-.24 1.085-.36 1.785-.36v1.395c-.08-.01-.19-.015-.33-.015-.78.0-1.392.233-1.837.698-.445.465-.668 1.127-.668 1.987v3.96h-1.44v-7.95h1.38V5.16zM22.36 3.75c1.1.0 1.943.27 2.528.81s.877 1.345.877 2.415v4.8H24.4v-1.05c-.24.37-.582.653-1.027.848-.445.195-.973.292-1.583.292-.89.0-1.602-.215-2.137-.645-.535-.43-.803-.995-.803-1.695.0-.7.255-1.262.765-1.687.51-.425 1.32-.638 2.43-.638h2.28v-.285c0-.62-.18-1.095-.54-1.425-.36-.33-.89-.495-1.59-.495-.47.0-.93.078-1.38.233-.45.155-.83.362-1.14.622l-.6-1.08c.41-.33.9-.582 1.47-.757a6.151 6.151.0 0 1 1.815-.263zm-.33 7.005c.55.0 1.025-.122 1.425-.367.4-.245.69-.593.87-1.043v-1.11h-2.22c-1.22.0-1.83.41-1.83 1.23.0.4.155.715.465.945.31.23.74.345 1.29.345zm-.96-8.34a.749.749.0 0 1-.54-.217.73.73.0 0 1-.225-.548c0-.22.075-.405.225-.555.15-.15.33-.225.54-.225.21.0.39.075.54.225.15.15.225.335.225.555a.73.73.0 0 1-.225.548.749.749.0 0 1-.54.217zm2.79.0a.749.749.0 0 1-.54-.217.73.73.0 0 1-.225-.548c0-.22.075-.405.225-.555.15-.15.33-.225.54-.225.21.0.39.075.54.225.15.15.225.335.225.555a.73.73.0 0 1-.225.548.749.749.0 0 1-.54.217zM35.32 3.825l-3.48 7.95h-1.47l-3.48-7.95h1.5l2.73 6.375 2.79-6.375h1.41zM43.63 7.845c0 .11-.01.255-.03.435h-6.45c.09.7.398 1.263.923 1.688.525.425 1.177.637 1.957.637.95.0 1.715-.32 2.295-.96l.795.93c-.36.42-.807.74-1.342.96-.535.22-1.133.33-1.793.33-.84.0-1.585-.172-2.235-.517A3.69 3.69.0 0 1 36.243 9.9c-.355-.62-.533-1.32-.533-2.1.0-.77.173-1.465.518-2.085.345-.62.82-1.102 1.425-1.447.605-.345 1.287-.518 2.047-.518.76.0 1.438.173 2.033.518.595.345 1.06.827 1.395 1.447.335.62.502 1.33.502 2.13zm-3.93-2.88c-.69.0-1.267.21-1.732.63-.465.42-.738.97-.818 1.65h5.1c-.08-.67-.352-1.217-.817-1.642-.465-.425-1.043-.638-1.733-.638zM49.87 3.75c1.01.0 1.813.293 2.408.878s.892 1.442.892 2.572v4.575h-1.44v-4.41c0-.77-.185-1.35-.555-1.74-.37-.39-.9-.585-1.59-.585-.78.0-1.395.228-1.845.683-.45.455-.675 1.107-.675 1.957v4.095h-1.44v-7.95h1.38v1.2a2.8 2.8.0 0 1 1.178-.945c.495-.22 1.057-.33 1.687-.33zM67.72 3.825l-2.97 7.95h-1.38l-2.295-6.03-2.325 6.03h-1.38l-2.955-7.95h1.365l2.31 6.33 2.4-6.33h1.215l2.355 6.36 2.37-6.36h1.29zM69.175 3.825h1.44v7.95h-1.44v-7.95zm.72-1.53a.959.959.0 0 1-.697-.27.886.886.0 0 1-.278-.66.91.91.0 0 1 .278-.667.945.945.0 0 1 .697-.278c.28.0.513.088.698.263a.86.86.0 0 1 .277.652.947.947.0 0 1-.975.96zM80.545 7.845c0 .11-.01.255-.03.435h-6.45c.09.7.398 1.263.923 1.688.525.425 1.177.637 1.957.637.95.0 1.715-.32 2.295-.96l.795.93c-.36.42-.807.74-1.342.96-.535.22-1.133.33-1.793.33-.84.0-1.585-.172-2.235-.517A3.69 3.69.0 0 1 73.158 9.9c-.355-.62-.533-1.32-.533-2.1.0-.77.173-1.465.518-2.085.345-.62.82-1.102 1.425-1.447.605-.345 1.287-.518 2.047-.518.76.0 1.438.173 2.033.518.595.345 1.06.827 1.395 1.447.335.62.502 1.33.502 2.13zm-3.93-2.88c-.69.0-1.267.21-1.732.63-.465.42-.738.97-.818 1.65h5.1c-.08-.67-.352-1.217-.817-1.642-.465-.425-1.043-.638-1.733-.638zM84.82 11.865c-.65.0-1.275-.087-1.875-.262-.6-.175-1.07-.398-1.41-.668l.6-1.14c.35.25.775.45 1.275.6.5.15 1.005.225 1.515.225 1.26.0 1.89-.36 1.89-1.08a.7.7.0 0 0-.255-.57 1.612 1.612.0 0 0-.637-.307 14.601 14.601.0 0 0-1.088-.218c-.64-.1-1.162-.215-1.567-.345a2.417 2.417.0 0 1-1.043-.66c-.29-.31-.435-.745-.435-1.305.0-.72.3-1.297.9-1.732.6-.435 1.405-.653 2.415-.653.53.0 1.06.065 1.59.195s.965.305 1.305.525l-.615 1.14c-.65-.42-1.415-.63-2.295-.63-.61.0-1.075.1-1.395.3-.32.2-.48.465-.48.795.0.26.09.465.27.615.18.15.403.26.668.33s.637.15 1.117.24c.64.11 1.158.228 1.553.353.395.125.732.337 1.012.637s.42.72.42 1.26c0 .72-.307 1.293-.922 1.718-.615.425-1.453.637-2.513.637zM94.27 3.75c.77.0 1.46.17 2.07.51a3.67 3.67.0 0 1 1.433 1.425c.345.61.517 1.315.517 2.115.0.8-.172 1.508-.517 2.123a3.654 3.654.0 0 1-1.433 1.432c-.61.34-1.3.51-2.07.51-.59.0-1.13-.115-1.62-.345a3.118 3.118.0 0 1-1.215-1.005v1.26h-1.38V.645h1.44v4.38c.32-.42.72-.737 1.2-.952a3.809 3.809.0 0 1 1.575-.323zm-.12 6.855c.51.0.968-.117 1.373-.352a2.54 2.54.0 0 0 .96-.99c.235-.425.352-.913.352-1.463s-.117-1.037-.352-1.462a2.488 2.488.0 0 0-.96-.983 2.732 2.732.0 0 0-1.373-.345c-.5.0-.955.115-1.365.345-.41.23-.73.558-.96.983-.23.425-.345.912-.345 1.462.0.55.115 1.038.345 1.463.23.425.55.755.96.99.41.235.865.352 1.365.352zM103.105 3.75c1.1.0 1.943.27 2.528.81s.877 1.345.877 2.415v4.8h-1.365v-1.05c-.24.37-.582.653-1.027.848-.445.195-.973.292-1.583.292-.89.0-1.602-.215-2.137-.645-.535-.43-.803-.995-.803-1.695.0-.7.255-1.262.765-1.687.51-.425 1.32-.638 2.43-.638h2.28v-.285c0-.62-.18-1.095-.54-1.425-.36-.33-.89-.495-1.59-.495-.47.0-.93.078-1.38.233-.45.155-.83.362-1.14.622l-.6-1.08c.41-.33.9-.582 1.47-.757a6.151 6.151.0 0 1 1.815-.263zm-.33 7.005c.55.0 1.025-.122 1.425-.367.4-.245.69-.593.87-1.043v-1.11h-2.22c-1.22.0-1.83.41-1.83 1.23.0.4.155.715.465.945.31.23.74.345 1.29.345zM112.69 11.865c-.81.0-1.532-.175-2.167-.525a3.847 3.847.0 0 1-1.493-1.447c-.36-.615-.54-1.313-.54-2.093s.18-1.477.54-2.092a3.795 3.795.0 0 1 1.493-1.44c.635-.345 1.357-.518 2.167-.518.72.0 1.363.145 1.928.435.565.29 1.002.71 1.312 1.26l-1.095.705c-.25-.38-.56-.665-.93-.855-.37-.19-.78-.285-1.23-.285-.52.0-.987.115-1.402.345a2.46 2.46.0 0 0-.975.983c-.235.425-.353.912-.353 1.462.0.56.118 1.053.353 1.478.235.425.56.752.975.982.415.23.882.345 1.402.345.45.0.86-.095 1.23-.285.37-.19.68-.475.93-.855l1.095.69c-.31.55-.747.973-1.312 1.268-.565.295-1.208.442-1.928.442zM121.93 3.75c1.01.0 1.813.293 2.408.878s.892 1.442.892 2.572v4.575h-1.44v-4.41c0-.77-.185-1.35-.555-1.74-.37-.39-.9-.585-1.59-.585-.78.0-1.395.228-1.845.683-.45.455-.675 1.107-.675 1.957v4.095h-1.44V.645h1.44V4.95c.3-.38.693-.675 1.178-.885a4.053 4.053.0 0 1 1.627-.315z" fill="#323232" fill-rule="nonzero"/></svg><svg viewBox="0 0 259 15" fill-rule="evenodd" clip-rule="evenodd" stroke-linejoin="round" stroke-miterlimit="1.414" id="addr-eml" xmlns="http://www.w3.org/2000/svg"><path d="M5.07 3.75c.77.0 1.46.17 2.07.51a3.67 3.67.0 0 1 1.433 1.425c.345.61.517 1.315.517 2.115.0.8-.172 1.508-.517 2.123a3.654 3.654.0 0 1-1.433 1.432c-.61.34-1.3.51-2.07.51-.57.0-1.092-.11-1.567-.33a3.262 3.262.0 0 1-1.208-.96v4.11H.855V3.825h1.38v1.26c.32-.44.725-.772 1.215-.997a3.836 3.836.0 0 1 1.62-.338zm-.12 6.855c.51.0.968-.117 1.373-.352a2.54 2.54.0 0 0 .96-.99c.235-.425.352-.913.352-1.463s-.117-1.037-.352-1.462a2.488 2.488.0 0 0-.96-.983A2.732 2.732.0 0 0 4.95 5.01c-.5.0-.952.118-1.357.353a2.553 2.553.0 0 0-.96.982c-.235.42-.353.905-.353 1.455s.115 1.038.345 1.463c.23.425.55.755.96.99.41.235.865.352 1.365.352zM18.495 3.825v7.95H17.13v-1.2c-.29.41-.672.728-1.147.953a3.582 3.582.0 0 1-1.553.337c-1.06.0-1.895-.292-2.505-.877-.61-.585-.915-1.448-.915-2.588V3.825h1.44v4.41c0 .77.185 1.353.555 1.748.37.395.9.592 1.59.592.76.0 1.36-.23 1.8-.69.44-.46.66-1.11.66-1.95v-4.11h1.44zM31.185 3.75c1 0 1.793.29 2.378.87.585.58.877 1.44.877 2.58v4.575H33v-4.41c0-.77-.177-1.35-.532-1.74-.355-.39-.863-.585-1.523-.585-.73.0-1.31.228-1.74.683-.43.455-.645 1.107-.645 1.957v4.095h-1.44v-4.41c0-.77-.177-1.35-.532-1.74-.355-.39-.863-.585-1.523-.585-.73.0-1.31.228-1.74.683-.43.455-.645 1.107-.645 1.957v4.095h-1.44v-7.95h1.38V5.01c.29-.41.67-.722 1.14-.937.47-.215 1.005-.323 1.605-.323.62.0 1.17.125 1.65.375s.85.615 1.11 1.095c.3-.46.718-.82 1.253-1.08.535-.26 1.137-.39 1.807-.39zM41.31 3.75c.77.0 1.46.17 2.07.51a3.67 3.67.0 0 1 1.433 1.425c.345.61.517 1.315.517 2.115.0.8-.172 1.508-.517 2.123a3.654 3.654.0 0 1-1.433 1.432c-.61.34-1.3.51-2.07.51-.57.0-1.092-.11-1.567-.33a3.262 3.262.0 0 1-1.208-.96v4.11h-1.44V3.825h1.38v1.26c.32-.44.725-.772 1.215-.997a3.836 3.836.0 0 1 1.62-.338zm-.12 6.855c.51.0.968-.117 1.373-.352a2.54 2.54.0 0 0 .96-.99c.235-.425.352-.913.352-1.463s-.117-1.037-.352-1.462a2.488 2.488.0 0 0-.96-.983 2.732 2.732.0 0 0-1.373-.345c-.5.0-.952.118-1.357.353a2.553 2.553.0 0 0-.96.982c-.235.42-.353.905-.353 1.455s.115 1.038.345 1.463c.23.425.55.755.96.99.41.235.865.352 1.365.352zM49.605 11.865c-.65.0-1.275-.087-1.875-.262-.6-.175-1.07-.398-1.41-.668l.6-1.14c.35.25.775.45 1.275.6.5.15 1.005.225 1.515.225 1.26.0 1.89-.36 1.89-1.08a.7.7.0 0 0-.255-.57 1.612 1.612.0 0 0-.637-.307 14.601 14.601.0 0 0-1.088-.218c-.64-.1-1.162-.215-1.567-.345a2.417 2.417.0 0 1-1.043-.66c-.29-.31-.435-.745-.435-1.305.0-.72.3-1.297.9-1.732.6-.435 1.405-.653 2.415-.653.53.0 1.06.065 1.59.195s.965.305 1.305.525l-.615 1.14c-.65-.42-1.415-.63-2.295-.63-.61.0-1.075.1-1.395.3-.32.2-.48.465-.48.795.0.26.09.465.27.615.18.15.403.26.668.33s.637.15 1.117.24c.64.11 1.158.228 1.553.353.395.125.732.337 1.012.637s.42.72.42 1.26c0 .72-.307 1.293-.922 1.718-.615.425-1.453.637-2.513.637zM59.31 11.31c-.21.18-.47.318-.78.413-.31.095-.63.142-.96.142-.8.0-1.42-.215-1.86-.645-.44-.43-.66-1.045-.66-1.845V5.01H53.7V3.825h1.35v-1.74h1.44v1.74h2.28V5.01h-2.28v4.305c0 .43.108.76.323.99.215.23.522.345.922.345.44.0.815-.125 1.125-.375l.45 1.035zM63.945 3.75c1.1.0 1.943.27 2.528.81s.877 1.345.877 2.415v4.8h-1.365v-1.05c-.24.37-.582.653-1.027.848-.445.195-.973.292-1.583.292-.89.0-1.602-.215-2.137-.645-.535-.43-.803-.995-.803-1.695.0-.7.255-1.262.765-1.687.51-.425 1.32-.638 2.43-.638h2.28v-.285c0-.62-.18-1.095-.54-1.425-.36-.33-.89-.495-1.59-.495-.47.0-.93.078-1.38.233-.45.155-.83.362-1.14.622l-.6-1.08c.41-.33.9-.582 1.47-.757a6.151 6.151.0 0 1 1.815-.263zm-.33 7.005c.55.0 1.025-.122 1.425-.367.4-.245.69-.593.87-1.043v-1.11h-2.22c-1.22.0-1.83.41-1.83 1.23.0.4.155.715.465.945.31.23.74.345 1.29.345zM74.49 11.31c-.21.18-.47.318-.78.413-.31.095-.63.142-.96.142-.8.0-1.42-.215-1.86-.645-.44-.43-.66-1.045-.66-1.845V5.01h-1.35V3.825h1.35v-1.74h1.44v1.74h2.28V5.01h-2.28v4.305c0 .43.108.76.323.99.215.23.522.345.922.345.44.0.815-.125 1.125-.375l.45 1.035zM76.23 3.825h1.44v7.95h-1.44v-7.95zm.72-1.53a.959.959.0 0 1-.697-.27.886.886.0 0 1-.278-.66.91.91.0 0 1 .278-.667.945.945.0 0 1 .697-.278c.28.0.513.088.698.263a.86.86.0 0 1 .277.652.947.947.0 0 1-.975.96zM83.82 11.865c-.79.0-1.5-.175-2.13-.525a3.805 3.805.0 0 1-1.477-1.447c-.355-.615-.533-1.313-.533-2.093s.178-1.477.533-2.092a3.753 3.753.0 0 1 1.477-1.44c.63-.345 1.34-.518 2.13-.518.79.0 1.498.173 2.123.518a3.768 3.768.0 0 1 1.47 1.44c.355.615.532 1.312.532 2.092s-.177 1.478-.532 2.093a3.82 3.82.0 0 1-1.47 1.447c-.625.35-1.333.525-2.123.525zm0-1.26c.51.0.968-.117 1.373-.352s.722-.565.952-.99c.23-.425.345-.913.345-1.463s-.115-1.037-.345-1.462a2.437 2.437.0 0 0-.952-.983 2.732 2.732.0 0 0-1.373-.345c-.51.0-.967.115-1.372.345-.405.23-.725.558-.96.983-.235.425-.353.912-.353 1.462.0.55.118 1.038.353 1.463.235.425.555.755.96.99.405.235.862.352 1.372.352zM94.185 3.75c1.01.0 1.813.293 2.408.878s.892 1.442.892 2.572v4.575h-1.44v-4.41c0-.77-.185-1.35-.555-1.74-.37-.39-.9-.585-1.59-.585-.78.0-1.395.228-1.845.683-.45.455-.675 1.107-.675 1.957v4.095h-1.44v-7.95h1.38v1.2a2.8 2.8.0 0 1 1.178-.945c.495-.22 1.057-.33 1.687-.33zM104.37 3.75c.77.0 1.46.17 2.07.51a3.67 3.67.0 0 1 1.433 1.425c.345.61.517 1.315.517 2.115.0.8-.172 1.508-.517 2.123a3.654 3.654.0 0 1-1.433 1.432c-.61.34-1.3.51-2.07.51-.57.0-1.092-.11-1.567-.33a3.262 3.262.0 0 1-1.208-.96v4.11h-1.44V3.825h1.38v1.26c.32-.44.725-.772 1.215-.997a3.836 3.836.0 0 1 1.62-.338zm-.12 6.855c.51.0.968-.117 1.373-.352a2.54 2.54.0 0 0 .96-.99c.235-.425.352-.913.352-1.463s-.117-1.037-.352-1.462a2.488 2.488.0 0 0-.96-.983 2.732 2.732.0 0 0-1.373-.345c-.5.0-.952.118-1.357.353a2.553 2.553.0 0 0-.96.982c-.235.42-.353.905-.353 1.455s.115 1.038.345 1.463c.23.425.55.755.96.99.41.235.865.352 1.365.352zM110.385.645h1.44v11.13h-1.44zM121.98 3.825v7.95h-1.365v-1.2c-.29.41-.672.728-1.147.953a3.582 3.582.0 0 1-1.553.337c-1.06.0-1.895-.292-2.505-.877-.61-.585-.915-1.448-.915-2.588V3.825h1.44v4.41c0 .77.185 1.353.555 1.748.37.395.9.592 1.59.592.76.0 1.36-.23 1.8-.69.44-.46.66-1.11.66-1.95v-4.11h1.44zM132.33 3.825v6.87c0 1.39-.345 2.418-1.035 3.083s-1.72.997-3.09.997c-.75.0-1.465-.102-2.145-.307-.68-.205-1.23-.498-1.65-.878l.69-1.11c.37.32.828.573 1.373.758a5.211 5.211.0 0 0 1.687.277c.93.0 1.618-.22 2.063-.66.445-.44.667-1.11.667-2.01v-.63c-.34.41-.757.718-1.252.923a4.175 4.175.0 0 1-1.613.307c-.76.0-1.447-.162-2.062-.487a3.628 3.628.0 0 1-1.448-1.365c-.35-.585-.525-1.253-.525-2.003.0-.75.175-1.417.525-2.002a3.577 3.577.0 0 1 1.448-1.358c.615-.32 1.302-.48 2.062-.48.6.0 1.158.11 1.673.33.515.22.937.545 1.267.975v-1.23h1.365zm-4.14 6.36c.52.0.988-.11 1.403-.33.415-.22.74-.527.975-.922s.352-.843.352-1.343c0-.77-.255-1.392-.765-1.867-.51-.475-1.165-.713-1.965-.713-.81.0-1.47.238-1.98.713s-.765 1.097-.765 1.867c0 .5.118.948.353 1.343s.56.702.975.922c.415.22.887.33 1.417.33zM135.075 3.825h1.44v7.95h-1.44v-7.95zm.72-1.53a.959.959.0 0 1-.697-.27.886.886.0 0 1-.278-.66.91.91.0 0 1 .278-.667.945.945.0 0 1 .697-.278c.28.0.513.088.698.263a.86.86.0 0 1 .277.652.947.947.0 0 1-.975.96zM143.505 3.75c1.01.0 1.813.293 2.408.878s.892 1.442.892 2.572v4.575h-1.44v-4.41c0-.77-.185-1.35-.555-1.74-.37-.39-.9-.585-1.59-.585-.78.0-1.395.228-1.845.683-.45.455-.675 1.107-.675 1.957v4.095h-1.44v-7.95h1.38v1.2a2.8 2.8.0 0 1 1.178-.945c.495-.22 1.057-.33 1.687-.33zM155.91 1.17c1.35.0 2.555.278 3.615.833a6.138 6.138.0 0 1 2.483 2.332c.595 1 .892 2.14.892 3.42.0 1.28-.235 2.285-.705 3.015s-1.125 1.095-1.965 1.095c-.48.0-.877-.122-1.192-.367-.315-.245-.518-.598-.608-1.058-.3.46-.692.813-1.177 1.058-.485.245-1.043.367-1.673.367-.7.0-1.33-.165-1.89-.495a3.466 3.466.0 0 1-1.312-1.372c-.315-.585-.473-1.248-.473-1.988.0-.73.158-1.387.473-1.972a3.415 3.415.0 0 1 1.312-1.365 3.696 3.696.0 0 1 1.89-.488c.58.0 1.105.108 1.575.323.47.215.86.532 1.17.952V4.245h1.305v5.4c0 .37.08.643.24.818.16.175.365.262.615.262.44.0.783-.257 1.028-.772s.367-1.243.367-2.183c0-1.11-.25-2.087-.75-2.932a5.147 5.147.0 0 0-2.107-1.973c-.905-.47-1.943-.705-3.113-.705-1.18.0-2.222.245-3.127.735a5.246 5.246.0 0 0-2.108 2.055c-.5.88-.75 1.885-.75 3.015.0 1.14.248 2.15.743 3.03a5.271 5.271.0 0 0 2.085 2.063c.895.495 1.927.742 3.097.742.49.0.99-.055 1.5-.165.51-.11.975-.275 1.395-.495l.33.96c-.44.23-.95.405-1.53.525-.58.12-1.145.18-1.695.18-1.37.0-2.587-.292-3.652-.877a6.263 6.263.0 0 1-2.483-2.438c-.59-1.04-.885-2.215-.885-3.525s.298-2.48.893-3.51a6.265 6.265.0 0 1 2.505-2.415c1.075-.58 2.302-.87 3.682-.87zm-.12 9.525a2.6 2.6.0 0 0 1.313-.33c.385-.22.69-.532.915-.937.225-.405.337-.878.337-1.418.0-.54-.112-1.012-.337-1.417a2.34 2.34.0 0 0-.915-.93 2.648 2.648.0 0 0-1.313-.323c-.76.0-1.375.243-1.845.728s-.705 1.132-.705 1.942.238 1.46.713 1.95 1.087.735 1.837.735zM168.39 11.865c-.79.0-1.5-.175-2.13-.525a3.805 3.805.0 0 1-1.477-1.447c-.355-.615-.533-1.313-.533-2.093s.178-1.477.533-2.092a3.753 3.753.0 0 1 1.477-1.44c.63-.345 1.34-.518 2.13-.518.79.0 1.498.173 2.123.518a3.768 3.768.0 0 1 1.47 1.44c.355.615.532 1.312.532 2.092s-.177 1.478-.532 2.093a3.82 3.82.0 0 1-1.47 1.447c-.625.35-1.333.525-2.123.525zm0-1.26c.51.0.968-.117 1.373-.352s.722-.565.952-.99c.23-.425.345-.913.345-1.463s-.115-1.037-.345-1.462a2.437 2.437.0 0 0-.952-.983 2.732 2.732.0 0 0-1.373-.345c-.51.0-.967.115-1.372.345-.405.23-.725.558-.96.983-.235.425-.353.912-.353 1.462.0.55.118 1.038.353 1.463.235.425.555.755.96.99.405.235.862.352 1.372.352zM181.92 3.825v7.95h-1.365v-1.2c-.29.41-.672.728-1.147.953a3.582 3.582.0 0 1-1.553.337c-1.06.0-1.895-.292-2.505-.877-.61-.585-.915-1.448-.915-2.588V3.825h1.44v4.41c0 .77.185 1.353.555 1.748.37.395.9.592 1.59.592.76.0 1.36-.23 1.8-.69.44-.46.66-1.11.66-1.95v-4.11h1.44zM189.135 11.31c-.21.18-.47.318-.78.413-.31.095-.63.142-.96.142-.8.0-1.42-.215-1.86-.645-.44-.43-.66-1.045-.66-1.845V5.01h-1.35V3.825h1.35v-1.74h1.44v1.74h2.28V5.01h-2.28v4.305c0 .43.108.76.323.99.215.23.522.345.922.345.44.0.815-.125 1.125-.375l.45 1.035zM190.875.645h1.44v11.13h-1.44zM198.465 11.865c-.79.0-1.5-.175-2.13-.525a3.805 3.805.0 0 1-1.477-1.447c-.355-.615-.533-1.313-.533-2.093s.178-1.477.533-2.092a3.753 3.753.0 0 1 1.477-1.44c.63-.345 1.34-.518 2.13-.518.79.0 1.498.173 2.123.518a3.768 3.768.0 0 1 1.47 1.44c.355.615.532 1.312.532 2.092s-.177 1.478-.532 2.093a3.82 3.82.0 0 1-1.47 1.447c-.625.35-1.333.525-2.123.525zm0-1.26c.51.0.968-.117 1.373-.352s.722-.565.952-.99c.23-.425.345-.913.345-1.463s-.115-1.037-.345-1.462a2.437 2.437.0 0 0-.952-.983 2.732 2.732.0 0 0-1.373-.345c-.51.0-.967.115-1.372.345-.405.23-.725.558-.96.983-.235.425-.353.912-.353 1.462.0.55.118 1.038.353 1.463.235.425.555.755.96.99.405.235.862.352 1.372.352zM207.99 11.865c-.79.0-1.5-.175-2.13-.525a3.805 3.805.0 0 1-1.477-1.447c-.355-.615-.533-1.313-.533-2.093s.178-1.477.533-2.092a3.753 3.753.0 0 1 1.477-1.44c.63-.345 1.34-.518 2.13-.518.79.0 1.498.173 2.123.518a3.768 3.768.0 0 1 1.47 1.44c.355.615.532 1.312.532 2.092s-.177 1.478-.532 2.093a3.82 3.82.0 0 1-1.47 1.447c-.625.35-1.333.525-2.123.525zm0-1.26c.51.0.968-.117 1.373-.352s.722-.565.952-.99c.23-.425.345-.913.345-1.463s-.115-1.037-.345-1.462a2.437 2.437.0 0 0-.952-.983 2.732 2.732.0 0 0-1.373-.345c-.51.0-.967.115-1.372.345-.405.23-.725.558-.96.983-.235.425-.353.912-.353 1.462.0.55.118 1.038.353 1.463.235.425.555.755.96.99.405.235.862.352 1.372.352zM217.2 8.07l-1.65 1.53v2.175h-1.44V.645h1.44v7.14l4.335-3.96h1.74L218.28 7.11l3.675 4.665h-1.77L217.2 8.07zM223.845 11.865a.994.994.0 0 1-.72-.292.994.994.0 0 1-.3-.743c0-.29.1-.532.3-.727.2-.195.44-.293.72-.293.28.0.515.095.705.285.19.19.285.435.285.735s-.097.548-.292.743a.953.953.0 0 1-.698.292zM230.19 11.865c-.81.0-1.532-.175-2.167-.525a3.847 3.847.0 0 1-1.493-1.447c-.36-.615-.54-1.313-.54-2.093s.18-1.477.54-2.092a3.795 3.795.0 0 1 1.493-1.44c.635-.345 1.357-.518 2.167-.518.72.0 1.363.145 1.928.435.565.29 1.002.71 1.312 1.26l-1.095.705c-.25-.38-.56-.665-.93-.855-.37-.19-.78-.285-1.23-.285-.52.0-.987.115-1.402.345a2.46 2.46.0 0 0-.975.983c-.235.425-.353.912-.353 1.462.0.56.118 1.053.353 1.478.235.425.56.752.975.982.415.23.882.345 1.402.345.45.0.86-.095 1.23-.285.37-.19.68-.475.93-.855l1.095.69c-.31.55-.747.973-1.312 1.268-.565.295-1.208.442-1.928.442zM238.575 11.865c-.79.0-1.5-.175-2.13-.525a3.805 3.805.0 0 1-1.477-1.447c-.355-.615-.533-1.313-.533-2.093s.178-1.477.533-2.092a3.753 3.753.0 0 1 1.477-1.44c.63-.345 1.34-.518 2.13-.518.79.0 1.498.173 2.123.518a3.768 3.768.0 0 1 1.47 1.44c.355.615.532 1.312.532 2.092s-.177 1.478-.532 2.093a3.82 3.82.0 0 1-1.47 1.447c-.625.35-1.333.525-2.123.525zm0-1.26c.51.0.968-.117 1.373-.352s.722-.565.952-.99c.23-.425.345-.913.345-1.463s-.115-1.037-.345-1.462a2.437 2.437.0 0 0-.952-.983 2.732 2.732.0 0 0-1.373-.345c-.51.0-.967.115-1.372.345-.405.23-.725.558-.96.983-.235.425-.353.912-.353 1.462.0.55.118 1.038.353 1.463.235.425.555.755.96.99.405.235.862.352 1.372.352zM254.64 3.75c1 0 1.793.29 2.378.87.585.58.877 1.44.877 2.58v4.575h-1.44v-4.41c0-.77-.177-1.35-.532-1.74-.355-.39-.863-.585-1.523-.585-.73.0-1.31.228-1.74.683-.43.455-.645 1.107-.645 1.957v4.095h-1.44v-4.41c0-.77-.177-1.35-.532-1.74-.355-.39-.863-.585-1.523-.585-.73.0-1.31.228-1.74.683-.43.455-.645 1.107-.645 1.957v4.095h-1.44v-7.95h1.38V5.01c.29-.41.67-.722 1.14-.937.47-.215 1.005-.323 1.605-.323.62.0 1.17.125 1.65.375s.85.615 1.11 1.095c.3-.46.718-.82 1.253-1.08.535-.26 1.137-.39 1.807-.39z" fill="#323232" fill-rule="nonzero"/></svg><svg viewBox="0 0 78 13" fill-rule="evenodd" clip-rule="evenodd" stroke-linejoin="round" stroke-miterlimit="1.414" id="addr-fn" xmlns="http://www.w3.org/2000/svg"><path d="M8.755 9.15h-5.58L2.02 11.775H.475l4.755-10.5h1.485l4.77 10.5H9.91L8.755 9.15zm-.525-1.2L5.965 2.805 3.7 7.95h4.53zM12.835.645h1.44v11.13h-1.44zM24.205 7.845c0 .11-.01.255-.03.435h-6.45c.09.7.398 1.263.923 1.688.525.425 1.177.637 1.957.637.95.0 1.715-.32 2.295-.96l.795.93c-.36.42-.807.74-1.342.96-.535.22-1.133.33-1.793.33-.84.0-1.585-.172-2.235-.517A3.69 3.69.0 0 1 16.818 9.9c-.355-.62-.533-1.32-.533-2.1.0-.77.173-1.465.518-2.085.345-.62.82-1.102 1.425-1.447.605-.345 1.287-.518 2.047-.518.76.0 1.438.173 2.033.518.595.345 1.06.827 1.395 1.447.335.62.502 1.33.502 2.13zm-3.93-2.88c-.69.0-1.267.21-1.732.63-.465.42-.738.97-.818 1.65h5.1c-.08-.67-.352-1.217-.817-1.642-.465-.425-1.043-.638-1.733-.638zM31.045 11.775 28.75 8.73l-2.325 3.045H24.82l3.135-4.065-2.985-3.885h1.605l2.19 2.865 2.175-2.865h1.575l-3 3.885 3.165 4.065h-1.635zM37 3.75c1.1.0 1.943.27 2.528.81s.877 1.345.877 2.415v4.8H39.04v-1.05c-.24.37-.582.653-1.027.848-.445.195-.973.292-1.583.292-.89.0-1.602-.215-2.137-.645-.535-.43-.803-.995-.803-1.695.0-.7.255-1.262.765-1.687.51-.425 1.32-.638 2.43-.638h2.28v-.285c0-.62-.18-1.095-.54-1.425-.36-.33-.89-.495-1.59-.495-.47.0-.93.078-1.38.233-.45.155-.83.362-1.14.622l-.6-1.08c.41-.33.9-.582 1.47-.757A6.151 6.151.0 0 1 37 3.75zm-.33 7.005c.55.0 1.025-.122 1.425-.367.4-.245.69-.593.87-1.043v-1.11h-2.22c-1.22.0-1.83.41-1.83 1.23.0.4.155.715.465.945.31.23.74.345 1.29.345zM47.32 3.75c1.01.0 1.813.293 2.408.878s.892 1.442.892 2.572v4.575h-1.44v-4.41c0-.77-.185-1.35-.555-1.74-.37-.39-.9-.585-1.59-.585-.78.0-1.395.228-1.845.683-.45.455-.675 1.107-.675 1.957v4.095h-1.44v-7.95h1.38v1.2a2.8 2.8.0 0 1 1.178-.945c.495-.22 1.057-.33 1.687-.33zM60.835.645v11.13h-1.38v-1.26c-.32.44-.725.775-1.215 1.005-.49.23-1.03.345-1.62.345-.77.0-1.46-.17-2.07-.51a3.652 3.652.0 0 1-1.432-1.432C52.773 9.308 52.6 8.6 52.6 7.8c0-.8.173-1.505.518-2.115A3.667 3.667.0 0 1 54.55 4.26c.61-.34 1.3-.51 2.07-.51.57.0 1.095.108 1.575.323.48.215.88.532 1.2.952V.645h1.44zm-4.095 9.96c.5.0.955-.117 1.365-.352.41-.235.73-.565.96-.99.23-.425.345-.913.345-1.463s-.115-1.037-.345-1.462a2.424 2.424.0 0 0-.96-.983 2.742 2.742.0 0 0-1.365-.345c-.51.0-.967.115-1.372.345-.405.23-.725.558-.96.983-.235.425-.353.912-.353 1.462.0.55.118 1.038.353 1.463.235.425.555.755.96.99.405.235.862.352 1.372.352zM70.75 7.845c0 .11-.01.255-.03.435h-6.45c.09.7.398 1.263.923 1.688.525.425 1.177.637 1.957.637.95.0 1.715-.32 2.295-.96l.795.93c-.36.42-.807.74-1.342.96-.535.22-1.133.33-1.793.33-.84.0-1.585-.172-2.235-.517A3.69 3.69.0 0 1 63.363 9.9c-.355-.62-.533-1.32-.533-2.1.0-.77.173-1.465.518-2.085.345-.62.82-1.102 1.425-1.447.605-.345 1.287-.518 2.047-.518.76.0 1.438.173 2.033.518.595.345 1.06.827 1.395 1.447.335.62.502 1.33.502 2.13zm-3.93-2.88c-.69.0-1.267.21-1.732.63-.465.42-.738.97-.818 1.65h5.1c-.08-.67-.352-1.217-.817-1.642-.465-.425-1.043-.638-1.733-.638zM74.125 5.16c.25-.46.62-.81 1.11-1.05.49-.24 1.085-.36 1.785-.36v1.395c-.08-.01-.19-.015-.33-.015-.78.0-1.392.233-1.837.698-.445.465-.668 1.127-.668 1.987v3.96h-1.44v-7.95h1.38V5.16z" fill="#323232" fill-rule="nonzero"/></svg><svg viewBox="0 0 9 12" fill-rule="evenodd" clip-rule="evenodd" stroke-linejoin="round" stroke-miterlimit="1.414" id="addr-hnr" xmlns="http://www.w3.org/2000/svg"><path d="M4.21 4.46c1.5.0 2.603.283 3.308.848.705.565 1.057 1.337 1.057 2.317.0.62-.147 1.178-.442 1.673-.295.495-.74.885-1.335 1.17-.595.285-1.328.427-2.198.427-.74.0-1.455-.112-2.145-.337-.69-.225-1.26-.538-1.71-.938l.69-1.185c.36.34.82.613 1.38.818.56.205 1.15.307 1.77.307.79.0 1.403-.167 1.838-.502.435-.335.652-.793.652-1.373.0-.63-.24-1.107-.72-1.432-.48-.325-1.3-.488-2.46-.488H1.51l.555-5.49H7.99V1.58H3.325L3.04 4.46h1.17z" fill="#323232" fill-rule="nonzero"/></svg><svg viewBox="0 0 41 12" fill-rule="evenodd" clip-rule="evenodd" stroke-linejoin="round" stroke-miterlimit="1.414" id="addr-pc" xmlns="http://www.w3.org/2000/svg"><path d="M4.74 4.4c.69.0 1.308.13 1.853.39.545.26.972.633 1.282 1.118.31.485.465 1.042.465 1.672.0.66-.162 1.24-.487 1.74-.325.5-.77.888-1.335 1.163s-1.198.412-1.898.412c-1.41.0-2.497-.455-3.262-1.365C.593 8.62.21 7.33.21 5.66c0-1.17.208-2.167.623-2.992.415-.825.995-1.45 1.74-1.875C3.318.368 4.185.155 5.175.155c.51.0.99.053 1.44.158.45.105.84.257 1.17.457l-.57 1.17c-.5-.33-1.17-.495-2.01-.495-1.09.0-1.945.338-2.565 1.013-.62.675-.93 1.657-.93 2.947.0.16.005.285.015.375.3-.45.713-.792 1.238-1.027C3.488 4.518 4.08 4.4 4.74 4.4zm-.18 5.28c.69.0 1.25-.185 1.68-.555.43-.37.645-.865.645-1.485.0-.62-.217-1.112-.652-1.477-.435-.365-1.018-.548-1.748-.548-.47.0-.887.09-1.252.27-.365.18-.65.425-.855.735-.205.31-.308.655-.308 1.035.0.37.098.708.293 1.013.195.305.48.55.855.735.375.185.822.277 1.342.277zM12.72.275v10.5h-1.485V1.58h-2.37V.275h3.855zM22.395 9.47v1.305H14.85v-1.02l4.275-4.125c.52-.5.87-.932 1.05-1.297.18-.365.27-.733.27-1.103.0-.55-.192-.977-.577-1.282-.385-.305-.938-.458-1.658-.458-1.16.0-2.055.38-2.685 1.14l-1.02-.885c.41-.5.948-.89 1.613-1.17.665-.28 1.407-.42 2.227-.42 1.1.0 1.975.263 2.625.788.65.525.975 1.237.975 2.137.0.56-.12 1.09-.36 1.59s-.695 1.07-1.365 1.71l-3.21 3.09h5.385zM31.23.275v1.02l-4.245 9.48h-1.59L29.55 1.58h-4.8v1.875h-1.44V.275h7.92zM35.955.155c1.41.0 2.498.455 3.263 1.365.765.91 1.147 2.2 1.147 3.87.0 1.17-.207 2.168-.622 2.993-.415.825-.995 1.45-1.74 1.875-.745.425-1.613.637-2.603.637-.51.0-.99-.052-1.44-.157a3.997 3.997.0 0 1-1.17-.458l.57-1.17c.51.33 1.185.495 2.025.495 1.09.0 1.943-.337 2.558-1.012.615-.675.922-1.658.922-2.948V5.27c-.3.45-.715.793-1.245 1.028-.53.235-1.125.352-1.785.352-.69.0-1.307-.13-1.852-.39a2.986 2.986.0 0 1-1.275-1.117c-.305-.485-.458-1.043-.458-1.673.0-.66.163-1.24.488-1.74A3.26 3.26.0 0 1 34.065.568c.56-.275 1.19-.413 1.89-.413zm.135 5.28c.47.0.89-.09 1.26-.27.37-.18.658-.425.863-.735.205-.31.307-.655.307-1.035.0-.37-.097-.707-.292-1.012-.195-.305-.48-.55-.855-.735-.375-.185-.828-.278-1.358-.278-.69.0-1.247.185-1.672.555-.425.37-.638.865-.638 1.485.0.62.215 1.113.645 1.478.43.365 1.01.547 1.74.547z" fill="#323232" fill-rule="nonzero"/></svg><svg viewBox="0 0 165 15" fill-rule="evenodd" clip-rule="evenodd" stroke-linejoin="round" stroke-miterlimit="1.414" id="addr-phn" xmlns="http://www.w3.org/2000/svg"><path d="M7.215 7.125h-2.73V9.81h-1.26V7.125H.495V5.94h2.73v-2.7h1.26v2.7h2.73v1.185zM18.18 9.195h-1.995v2.58H14.73v-2.58H8.895v-1.05l5.37-6.87h1.62l-5.145 6.63h4.035v-2.28h1.41v2.28h1.995v1.29zM22.38 1.155c1.41.0 2.498.455 3.263 1.365.765.91 1.147 2.2 1.147 3.87.0 1.17-.207 2.168-.622 2.993-.415.825-.995 1.45-1.74 1.875-.745.425-1.613.637-2.603.637-.51.0-.99-.052-1.44-.157a3.997 3.997.0 0 1-1.17-.458l.57-1.17c.51.33 1.185.495 2.025.495 1.09.0 1.943-.337 2.558-1.012.615-.675.922-1.658.922-2.948V6.27c-.3.45-.715.793-1.245 1.028-.53.235-1.125.352-1.785.352-.69.0-1.307-.13-1.852-.39a2.986 2.986.0 0 1-1.275-1.117c-.305-.485-.458-1.043-.458-1.673.0-.66.163-1.24.488-1.74a3.26 3.26.0 0 1 1.327-1.162c.56-.275 1.19-.413 1.89-.413zm.135 5.28c.47.0.89-.09 1.26-.27.37-.18.658-.425.863-.735.205-.31.307-.655.307-1.035.0-.37-.097-.707-.292-1.012-.195-.305-.48-.55-.855-.735-.375-.185-.828-.278-1.358-.278-.69.0-1.247.185-1.672.555-.425.37-.638.865-.638 1.485.0.62.215 1.113.645 1.478.43.365 1.01.547 1.74.547zM34.755 14.685c-.57-.92-1.01-1.977-1.32-3.172-.31-1.195-.465-2.478-.465-3.848.0-1.37.155-2.657.465-3.862.31-1.205.75-2.258 1.32-3.158h1.365a12.66 12.66.0 0 0-1.32 3.3c-.28 1.15-.42 2.39-.42 3.72s.14 2.57.42 3.72c.28 1.15.72 2.25 1.32 3.3h-1.365zM41.61 11.895c-.83.0-1.567-.212-2.212-.637-.645-.425-1.153-1.043-1.523-1.853-.37-.81-.555-1.77-.555-2.88.0-1.11.185-2.07.555-2.88.37-.81.878-1.427 1.523-1.852.645-.425 1.382-.638 2.212-.638.82.0 1.553.213 2.198.638.645.425 1.152 1.042 1.522 1.852.37.81.555 1.77.555 2.88.0 1.11-.185 2.07-.555 2.88-.37.81-.877 1.428-1.522 1.853-.645.425-1.378.637-2.198.637zm0-1.335c.84.0 1.513-.345 2.018-1.035.505-.69.757-1.69.757-3s-.252-2.31-.757-3S42.45 2.49 41.61 2.49c-.85.0-1.527.345-2.032 1.035-.505.69-.758 1.69-.758 3s.253 2.31.758 3 1.182 1.035 2.032 1.035zM47.085 14.685a12.86 12.86.0 0 0 1.328-3.3c.285-1.15.427-2.39.427-3.72s-.142-2.57-.427-3.72a12.86 12.86.0 0 0-1.328-3.3h1.365c.58.9 1.025 1.95 1.335 3.15.31 1.2.465 2.49.465 3.87.0 1.37-.155 2.655-.465 3.855-.31 1.2-.755 2.255-1.335 3.165h-1.365zM59.685 1.275v10.5H58.2V2.58h-2.37V1.275h3.855zM64.98 5.46c1.5.0 2.603.283 3.308.848.705.565 1.057 1.337 1.057 2.317.0.62-.147 1.178-.442 1.673-.295.495-.74.885-1.335 1.17-.595.285-1.328.427-2.198.427-.74.0-1.455-.112-2.145-.337-.69-.225-1.26-.538-1.71-.938l.69-1.185c.36.34.82.613 1.38.818.56.205 1.15.307 1.77.307.79.0 1.403-.167 1.838-.502.435-.335.652-.793.652-1.373.0-.63-.24-1.107-.72-1.432-.48-.325-1.3-.488-2.46-.488H62.28l.555-5.49h5.925V2.58h-4.665l-.285 2.88h1.17zM73.845 1.275v10.5H72.36V2.58h-2.37V1.275h3.855zM89.31 9.195h-1.995v2.58H85.86v-2.58h-5.835v-1.05l5.37-6.87h1.62l-5.145 6.63h4.035v-2.28h1.41v2.28h1.995v1.29zM94.5 11.895c-.83.0-1.567-.212-2.212-.637-.645-.425-1.153-1.043-1.523-1.853-.37-.81-.555-1.77-.555-2.88.0-1.11.185-2.07.555-2.88.37-.81.878-1.427 1.523-1.852.645-.425 1.382-.638 2.212-.638.82.0 1.553.213 2.198.638.645.425 1.152 1.042 1.522 1.852.37.81.555 1.77.555 2.88.0 1.11-.185 2.07-.555 2.88-.37.81-.877 1.428-1.522 1.853-.645.425-1.378.637-2.198.637zm0-1.335c.84.0 1.513-.345 2.018-1.035.505-.69.757-1.69.757-3s-.252-2.31-.757-3S95.34 2.49 94.5 2.49c-.85.0-1.527.345-2.032 1.035-.505.69-.758 1.69-.758 3s.253 2.31.758 3S93.65 10.56 94.5 10.56zM111.63 10.47v1.305h-7.545v-1.02l4.275-4.125c.52-.5.87-.932 1.05-1.297.18-.365.27-.733.27-1.103.0-.55-.192-.977-.577-1.282-.385-.305-.938-.458-1.658-.458-1.16.0-2.055.38-2.685 1.14l-1.02-.885c.41-.5.948-.89 1.613-1.17.665-.28 1.407-.42 2.227-.42 1.1.0 1.975.263 2.625.788.65.525.975 1.237.975 2.137.0.56-.12 1.09-.36 1.59s-.695 1.07-1.365 1.71l-3.21 3.09h5.385zM115.86 5.46c1.5.0 2.603.283 3.308.848.705.565 1.057 1.337 1.057 2.317.0.62-.147 1.178-.442 1.673-.295.495-.74.885-1.335 1.17-.595.285-1.328.427-2.198.427-.74.0-1.455-.112-2.145-.337-.69-.225-1.26-.538-1.71-.938l.69-1.185c.36.34.82.613 1.38.818.56.205 1.15.307 1.77.307.79.0 1.403-.167 1.838-.502.435-.335.652-.793.652-1.373.0-.63-.24-1.107-.72-1.432-.48-.325-1.3-.488-2.46-.488h-2.385l.555-5.49h5.925V2.58h-4.665l-.285 2.88h1.17zM132.885 10.47v1.305h-7.545v-1.02l4.275-4.125c.52-.5.87-.932 1.05-1.297.18-.365.27-.733.27-1.103.0-.55-.192-.977-.577-1.282-.385-.305-.938-.458-1.658-.458-1.16.0-2.055.38-2.685 1.14l-1.02-.885c.41-.5.948-.89 1.613-1.17.665-.28 1.407-.42 2.227-.42 1.1.0 1.975.263 2.625.788.65.525.975 1.237.975 2.137.0.56-.12 1.09-.36 1.59s-.695 1.07-1.365 1.71l-3.21 3.09h5.385zM141.495 10.47v1.305h-7.545v-1.02l4.275-4.125c.52-.5.87-.932 1.05-1.297.18-.365.27-.733.27-1.103.0-.55-.192-.977-.577-1.282-.385-.305-.938-.458-1.658-.458-1.16.0-2.055.38-2.685 1.14l-1.02-.885c.41-.5.948-.89 1.613-1.17.665-.28 1.407-.42 2.227-.42 1.1.0 1.975.263 2.625.788.65.525.975 1.237.975 2.137.0.56-.12 1.09-.36 1.59s-.695 1.07-1.365 1.71l-3.21 3.09h5.385zM153.18 6.27c.6.23 1.06.56 1.38.99.32.43.48.945.48 1.545.0.63-.17 1.178-.51 1.643-.34.465-.825.822-1.455 1.072-.63.25-1.37.375-2.22.375-.84.0-1.572-.125-2.197-.375s-1.108-.607-1.448-1.072c-.34-.465-.51-1.013-.51-1.643.0-.6.158-1.115.473-1.545.315-.43.772-.76 1.372-.99-.48-.23-.845-.535-1.095-.915s-.375-.83-.375-1.35c0-.58.158-1.085.473-1.515.315-.43.757-.76 1.327-.99.57-.23 1.23-.345 1.98-.345.76.0 1.428.115 2.003.345.575.23 1.02.56 1.335.99.315.43.472.935.472 1.515.0.51-.127.958-.382 1.343s-.623.692-1.103.922zm-2.325-3.9c-.71.0-1.27.153-1.68.458-.41.305-.615.717-.615 1.237.0.52.203.93.608 1.23.405.3.967.45 1.687.45.73.0 1.303-.15 1.718-.45.415-.3.622-.71.622-1.23s-.212-.932-.637-1.237c-.425-.305-.993-.458-1.703-.458zm0 8.31c.83.0 1.485-.172 1.965-.517.48-.345.72-.813.72-1.403.0-.58-.24-1.037-.72-1.372-.48-.335-1.135-.503-1.965-.503-.83.0-1.48.168-1.95.503-.47.335-.705.792-.705 1.372.0.59.235 1.058.705 1.403s1.12.517 1.95.517zM162.84 6.27c.6.23 1.06.56 1.38.99.32.43.48.945.48 1.545.0.63-.17 1.178-.51 1.643-.34.465-.825.822-1.455 1.072-.63.25-1.37.375-2.22.375-.84.0-1.572-.125-2.197-.375s-1.108-.607-1.448-1.072c-.34-.465-.51-1.013-.51-1.643.0-.6.158-1.115.473-1.545.315-.43.772-.76 1.372-.99-.48-.23-.845-.535-1.095-.915s-.375-.83-.375-1.35c0-.58.158-1.085.473-1.515.315-.43.757-.76 1.327-.99.57-.23 1.23-.345 1.98-.345.76.0 1.428.115 2.003.345.575.23 1.02.56 1.335.99.315.43.472.935.472 1.515.0.51-.127.958-.382 1.343s-.623.692-1.103.922zm-2.325-3.9c-.71.0-1.27.153-1.68.458-.41.305-.615.717-.615 1.237.0.52.203.93.608 1.23.405.3.967.45 1.687.45.73.0 1.303-.15 1.718-.45.415-.3.622-.71.622-1.23s-.212-.932-.637-1.237c-.425-.305-.993-.458-1.703-.458zm0 8.31c.83.0 1.485-.172 1.965-.517.48-.345.72-.813.72-1.403.0-.58-.24-1.037-.72-1.372-.48-.335-1.135-.503-1.965-.503-.83.0-1.48.168-1.95.503-.47.335-.705.792-.705 1.372.0.59.235 1.058.705 1.403s1.12.517 1.95.517z" fill="#323232" fill-rule="nonzero"/></svg><svg viewBox="0 0 77 13" fill-rule="evenodd" clip-rule="evenodd" stroke-linejoin="round" stroke-miterlimit="1.414" id="addr-sn" xmlns="http://www.w3.org/2000/svg"><path d="M1.065 1.275h1.5v9.195H8.25v1.305H1.065v-10.5zM9.765 3.825h1.44v7.95h-1.44v-7.95zm.72-1.53a.959.959.0 0 1-.697-.27.886.886.0 0 1-.278-.66.91.91.0 0 1 .278-.667.945.945.0 0 1 .697-.278c.28.0.513.088.698.263a.86.86.0 0 1 .277.652.947.947.0 0 1-.975.96zm10.65 5.55c0 .11-.01.255-.03.435h-6.45c.09.7.398 1.263.923 1.688.525.425 1.177.637 1.957.637.95.0 1.715-.32 2.295-.96l.795.93c-.36.42-.807.74-1.342.96-.535.22-1.133.33-1.793.33-.84.0-1.585-.172-2.235-.517A3.69 3.69.0 0 1 13.748 9.9c-.355-.62-.533-1.32-.533-2.1.0-.77.173-1.465.518-2.085.345-.62.82-1.102 1.425-1.447.605-.345 1.287-.518 2.047-.518.76.0 1.438.173 2.033.518.595.345 1.06.827 1.395 1.447.335.62.502 1.33.502 2.13zm-3.93-2.88c-.69.0-1.267.21-1.732.63-.465.42-.738.97-.818 1.65h5.1c-.08-.67-.352-1.217-.817-1.642-.465-.425-1.043-.638-1.733-.638zM25.41 11.865c-.65.0-1.275-.087-1.875-.262-.6-.175-1.07-.398-1.41-.668l.6-1.14c.35.25.775.45 1.275.6.5.15 1.005.225 1.515.225 1.26.0 1.89-.36 1.89-1.08a.7.7.0 0 0-.255-.57 1.612 1.612.0 0 0-.637-.307 14.601 14.601.0 0 0-1.088-.218c-.64-.1-1.162-.215-1.567-.345a2.417 2.417.0 0 1-1.043-.66c-.29-.31-.435-.745-.435-1.305.0-.72.3-1.297.9-1.732.6-.435 1.405-.653 2.415-.653.53.0 1.06.065 1.59.195s.965.305 1.305.525l-.615 1.14c-.65-.42-1.415-.63-2.295-.63-.61.0-1.075.1-1.395.3-.32.2-.48.465-.48.795.0.26.09.465.27.615.18.15.403.26.668.33s.637.15 1.117.24c.64.11 1.158.228 1.553.353.395.125.732.337 1.012.637s.42.72.42 1.26c0 .72-.307 1.293-.922 1.718-.615.425-1.453.637-2.513.637zM37.83 7.845c0 .11-.01.255-.03.435h-6.45c.09.7.398 1.263.923 1.688.525.425 1.177.637 1.957.637.95.0 1.715-.32 2.295-.96l.795.93c-.36.42-.807.74-1.342.96-.535.22-1.133.33-1.793.33-.84.0-1.585-.172-2.235-.517A3.69 3.69.0 0 1 30.443 9.9c-.355-.62-.533-1.32-.533-2.1.0-.77.173-1.465.518-2.085.345-.62.82-1.102 1.425-1.447.605-.345 1.287-.518 2.047-.518.76.0 1.438.173 2.033.518.595.345 1.06.827 1.395 1.447.335.62.502 1.33.502 2.13zm-3.93-2.88c-.69.0-1.267.21-1.732.63-.465.42-.738.97-.818 1.65h5.1c-.08-.67-.352-1.217-.817-1.642-.465-.425-1.043-.638-1.733-.638zM44.07 3.75c1.01.0 1.813.293 2.408.878s.892 1.442.892 2.572v4.575h-1.44v-4.41c0-.77-.185-1.35-.555-1.74-.37-.39-.9-.585-1.59-.585-.78.0-1.395.228-1.845.683-.45.455-.675 1.107-.675 1.957v4.095h-1.44v-7.95h1.38v1.2a2.8 2.8.0 0 1 1.178-.945c.495-.22 1.057-.33 1.687-.33zM52.95 1.74c-.86.0-1.29.465-1.29 1.395v.69h2.31V5.01h-2.28v6.765h-1.44V5.01H48.9V3.825h1.35V3.12c0-.79.23-1.415.69-1.875.46-.46 1.105-.69 1.935-.69.32.0.62.04.9.12.28.08.52.195.72.345l-.435 1.095c-.33-.25-.7-.375-1.11-.375zM62.4 7.845c0 .11-.01.255-.03.435h-6.45c.09.7.398 1.263.923 1.688.525.425 1.177.637 1.957.637.95.0 1.715-.32 2.295-.96l.795.93c-.36.42-.807.74-1.342.96-.535.22-1.133.33-1.793.33-.84.0-1.585-.172-2.235-.517A3.69 3.69.0 0 1 55.013 9.9c-.355-.62-.533-1.32-.533-2.1.0-.77.173-1.465.518-2.085.345-.62.82-1.102 1.425-1.447.605-.345 1.287-.518 2.047-.518.76.0 1.438.173 2.033.518.595.345 1.06.827 1.395 1.447.335.62.502 1.33.502 2.13zm-3.93-2.88c-.69.0-1.267.21-1.732.63-.465.42-.738.97-.818 1.65h5.1c-.08-.67-.352-1.217-.817-1.642-.465-.425-1.043-.638-1.733-.638zM64.395.645h1.44v11.13h-1.44zM76.08.645v11.13H74.7v-1.26c-.32.44-.725.775-1.215 1.005-.49.23-1.03.345-1.62.345-.77.0-1.46-.17-2.07-.51a3.652 3.652.0 0 1-1.432-1.432c-.345-.615-.518-1.323-.518-2.123.0-.8.173-1.505.518-2.115a3.667 3.667.0 0 1 1.432-1.425c.61-.34 1.3-.51 2.07-.51.57.0 1.095.108 1.575.323.48.215.88.532 1.2.952V.645h1.44zm-4.095 9.96c.5.0.955-.117 1.365-.352.41-.235.73-.565.96-.99.23-.425.345-.913.345-1.463s-.115-1.037-.345-1.462a2.424 2.424.0 0 0-.96-.983 2.742 2.742.0 0 0-1.365-.345c-.51.0-.967.115-1.372.345-.405.23-.725.558-.96.983-.235.425-.353.912-.353 1.462.0.55.118 1.038.353 1.463.235.425.555.755.96.99.405.235.862.352 1.372.352z" fill="#323232" fill-rule="nonzero"/></svg><svg viewBox="0 0 27 11" fill-rule="evenodd" clip-rule="evenodd" stroke-linejoin="round" stroke-miterlimit="1.414" id="addr-strt1" xmlns="http://www.w3.org/2000/svg"><path d="M8.755 8.15h-5.58L2.02 10.775H.475L5.23.275h1.485l4.77 10.5H9.91L8.755 8.15zm-.525-1.2L5.965 1.805 3.7 6.95h4.53zm14.55-4.2c1 0 1.793.29 2.378.87.585.58.877 1.44.877 2.58v4.575h-1.44v-4.41c0-.77-.177-1.35-.532-1.74-.355-.39-.863-.585-1.523-.585-.73.0-1.31.228-1.74.683-.43.455-.645 1.107-.645 1.957v4.095h-1.44v-4.41c0-.77-.177-1.35-.532-1.74-.355-.39-.863-.585-1.523-.585-.73.0-1.31.228-1.74.683-.43.455-.645 1.107-.645 1.957v4.095h-1.44v-7.95h1.38V4.01c.29-.41.67-.722 1.14-.937.47-.215 1.005-.323 1.605-.323.62.0 1.17.125 1.65.375s.85.615 1.11 1.095c.3-.46.718-.82 1.253-1.08.535-.26 1.137-.39 1.807-.39z" fill="#323232" fill-rule="nonzero"/></svg><svg viewBox="0 0 84 15" fill-rule="evenodd" clip-rule="evenodd" stroke-linejoin="round" stroke-miterlimit="1.414" id="addr-strt2" xmlns="http://www.w3.org/2000/svg"><path d="M5.125 11.895c-.79.0-1.552-.122-2.287-.367-.735-.245-1.313-.563-1.733-.953l.555-1.17c.4.36.913.653 1.538.878a5.646 5.646.0 0 0 1.927.337c.87.0 1.52-.147 1.95-.442.43-.295.645-.688.645-1.178.0-.36-.117-.652-.352-.877a2.358 2.358.0 0 0-.87-.518c-.345-.12-.833-.255-1.463-.405-.79-.19-1.427-.38-1.912-.57a3.16 3.16.0 0 1-1.245-.877c-.345-.395-.518-.928-.518-1.598.0-.56.148-1.065.443-1.515.295-.45.742-.81 1.342-1.08.6-.27 1.345-.405 2.235-.405.62.0 1.23.08 1.83.24.6.16 1.115.39 1.545.69l-.495 1.2a5.43 5.43.0 0 0-1.41-.637c-.5-.145-.99-.218-1.47-.218-.85.0-1.487.155-1.912.465-.425.31-.638.71-.638 1.2.0.36.12.653.36.878.24.225.538.4.893.525s.837.257 1.447.397c.79.19 1.425.38 1.905.57.48.19.893.48 1.238.87s.517.915.517 1.575c0 .55-.15 1.053-.45 1.508-.3.455-.755.815-1.365 1.08-.61.265-1.36.397-2.25.397zM14.635 11.865c-.81.0-1.532-.175-2.167-.525a3.847 3.847.0 0 1-1.493-1.447c-.36-.615-.54-1.313-.54-2.093s.18-1.477.54-2.092a3.795 3.795.0 0 1 1.493-1.44c.635-.345 1.357-.518 2.167-.518.72.0 1.363.145 1.928.435.565.29 1.002.71 1.312 1.26l-1.095.705c-.25-.38-.56-.665-.93-.855-.37-.19-.78-.285-1.23-.285-.52.0-.987.115-1.402.345a2.46 2.46.0 0 0-.975.983c-.235.425-.353.912-.353 1.462.0.56.118 1.053.353 1.478.235.425.56.752.975.982.415.23.882.345 1.402.345.45.0.86-.095 1.23-.285.37-.19.68-.475.93-.855l1.095.69c-.31.55-.747.973-1.312 1.268-.565.295-1.208.442-1.928.442zm9.24-8.115c1.01.0 1.813.293 2.408.878s.892 1.442.892 2.572v4.575h-1.44v-4.41c0-.77-.185-1.35-.555-1.74-.37-.39-.9-.585-1.59-.585-.78.0-1.395.228-1.845.683-.45.455-.675 1.107-.675 1.957v4.095h-1.44V.645h1.44V4.95c.3-.38.693-.675 1.178-.885a4.053 4.053.0 0 1 1.627-.315zM37.075 7.845c0 .11-.01.255-.03.435h-6.45c.09.7.398 1.263.923 1.688.525.425 1.177.637 1.957.637.95.0 1.715-.32 2.295-.96l.795.93c-.36.42-.807.74-1.342.96-.535.22-1.133.33-1.793.33-.84.0-1.585-.172-2.235-.517A3.69 3.69.0 0 1 29.688 9.9c-.355-.62-.533-1.32-.533-2.1.0-.77.173-1.465.518-2.085.345-.62.82-1.102 1.425-1.447.605-.345 1.287-.518 2.047-.518.76.0 1.438.173 2.033.518.595.345 1.06.827 1.395 1.447.335.62.502 1.33.502 2.13zm-3.93-2.88c-.69.0-1.267.21-1.732.63-.465.42-.738.97-.818 1.65h5.1c-.08-.67-.352-1.217-.817-1.642-.465-.425-1.043-.638-1.733-.638zM39.07 3.825h1.44v7.95h-1.44v-7.95zm.72-1.53a.959.959.0 0 1-.697-.27.886.886.0 0 1-.278-.66.91.91.0 0 1 .278-.667.945.945.0 0 1 .697-.278c.28.0.513.088.698.263a.86.86.0 0 1 .277.652.947.947.0 0 1-.975.96zM50.755.645v11.13h-1.38v-1.26c-.32.44-.725.775-1.215 1.005-.49.23-1.03.345-1.62.345-.77.0-1.46-.17-2.07-.51a3.652 3.652.0 0 1-1.432-1.432c-.345-.615-.518-1.323-.518-2.123.0-.8.173-1.505.518-2.115A3.667 3.667.0 0 1 44.47 4.26c.61-.34 1.3-.51 2.07-.51.57.0 1.095.108 1.575.323.48.215.88.532 1.2.952V.645h1.44zm-4.095 9.96c.5.0.955-.117 1.365-.352.41-.235.73-.565.96-.99.23-.425.345-.913.345-1.463s-.115-1.037-.345-1.462a2.424 2.424.0 0 0-.96-.983 2.742 2.742.0 0 0-1.365-.345c-.51.0-.967.115-1.372.345-.405.23-.725.558-.96.983-.235.425-.353.912-.353 1.462.0.55.118 1.038.353 1.463.235.425.555.755.96.99.405.235.862.352 1.372.352zM65.515 3.825l-2.97 7.95h-1.38l-2.295-6.03-2.325 6.03h-1.38l-2.955-7.95h1.365l2.31 6.33 2.4-6.33H59.5l2.355 6.36 2.37-6.36h1.29zM73.93 7.845c0 .11-.01.255-.03.435h-6.45c.09.7.398 1.263.923 1.688.525.425 1.177.637 1.957.637.95.0 1.715-.32 2.295-.96l.795.93c-.36.42-.807.74-1.342.96-.535.22-1.133.33-1.793.33-.84.0-1.585-.172-2.235-.517A3.69 3.69.0 0 1 66.543 9.9c-.355-.62-.533-1.32-.533-2.1.0-.77.173-1.465.518-2.085.345-.62.82-1.102 1.425-1.447.605-.345 1.287-.518 2.047-.518.76.0 1.438.173 2.033.518.595.345 1.06.827 1.395 1.447.335.62.502 1.33.502 2.13zM70 4.965c-.69.0-1.267.21-1.732.63-.465.42-.738.97-.818 1.65h5.1c-.08-.67-.352-1.217-.817-1.642-.465-.425-1.043-.638-1.733-.638zM83.53 3.825v6.87c0 1.39-.345 2.418-1.035 3.083s-1.72.997-3.09.997c-.75.0-1.465-.102-2.145-.307-.68-.205-1.23-.498-1.65-.878l.69-1.11c.37.32.828.573 1.373.758a5.211 5.211.0 0 0 1.687.277c.93.0 1.618-.22 2.063-.66.445-.44.667-1.11.667-2.01v-.63c-.34.41-.757.718-1.252.923a4.175 4.175.0 0 1-1.613.307c-.76.0-1.447-.162-2.062-.487a3.628 3.628.0 0 1-1.448-1.365c-.35-.585-.525-1.253-.525-2.003.0-.75.175-1.417.525-2.002a3.577 3.577.0 0 1 1.448-1.358c.615-.32 1.302-.48 2.062-.48.6.0 1.158.11 1.673.33.515.22.937.545 1.267.975v-1.23h1.365zm-4.14 6.36c.52.0.988-.11 1.403-.33.415-.22.74-.527.975-.922s.352-.843.352-1.343c0-.77-.255-1.392-.765-1.867-.51-.475-1.165-.713-1.965-.713-.81.0-1.47.238-1.98.713s-.765 1.097-.765 1.867c0 .5.118.948.353 1.343s.56.702.975.922c.415.22.887.33 1.417.33z" fill="#323232" fill-rule="nonzero"/></svg><svg viewBox="0 0 75 47" fill-rule="evenodd" clip-rule="evenodd" stroke-linecap="round" stroke-linejoin="round" stroke-miterlimit="1.5" id="eye-icon" xmlns="http://www.w3.org/2000/svg"><g fill="none" stroke="#cdcdcd" stroke-width="4"><path d="M2.675 23.059c21.904-25.86 45.042-27.253 69.668.0-25.019 28.193-48.223 27.977-69.668.0"/><circle cx="36.697" cy="23.498" r="20.556"/></g></svg><svg viewBox="0 0 73 70" fill-rule="evenodd" clip-rule="evenodd" stroke-linejoin="round" stroke-miterlimit="1.414" id="factory-presets-icon" xmlns="http://www.w3.org/2000/svg"><path d="M19.884.401l3.01 5.075 3.208-2.446.229 3.899 5.989-1.27-4.128 4.407 3.355 2.145-3.782 1.476 3.01 5.076-5.561-2.352-1.134 3.772-2.567-2.987-4.128 4.407.691-5.86-4.056.186 2.195-3.323-5.561-2.351 5.988-1.271-1.373-3.656 3.924.933.691-5.86z" fill="#e9e9e9"/><path d="M60.344 4.198l8.616 16.544H51.728l8.616-16.544z" fill="#dbdbdb"/><path d="M40.228 51.398l9.573 9.19-9.573 9.191-9.573-9.191 9.573-9.19z" fill="#d1d1d1"/><path d="M10.371 36.225l9.406 6.561-3.593 10.615H4.558L.965 42.786l9.406-6.561z" fill="#e7e7e7"/><path d="M64.588 42.143c1.766-3.22 5.296-3.22 7.062-1.61 1.765 1.61 1.765 4.83.0 8.051-1.236 2.415-4.414 4.83-7.062 6.44-2.648-1.61-5.825-4.025-7.061-6.44-1.766-3.221-1.766-6.441.0-8.051 1.765-1.61 5.296-1.61 7.061 1.61z" fill="#d6d6d6"/><path d="M39.651 20.36a15.715 15.715.0 0 0-2.958.0l-.444 2.242a13.27 13.27.0 0 0-2.751.708l-1.552-1.729a15.3 15.3.0 0 0-2.562 1.42l.783 2.155a12.578 12.578.0 0 0-2.013 1.933l-2.245-.751a14.339 14.339.0 0 0-1.479 2.459l1.801 1.49a11.949 11.949.0 0 0-.738 2.641l-2.335.427a13.885 13.885.0 0 0 0 2.839l2.335.427c.143.904.391 1.789.738 2.641l-1.801 1.49c.408.864.903 1.688 1.479 2.459l2.245-.752a12.541 12.541.0 0 0 2.013 1.934l-.783 2.155a15.296 15.296.0 0 0 2.562 1.419l1.552-1.728c.887.333 1.81.571 2.751.708l.444 2.242c.984.093 1.974.093 2.958.0l.444-2.242a13.254 13.254.0 0 0 2.751-.708l1.552 1.728a15.256 15.256.0 0 0 2.562-1.419l-.783-2.155a12.59 12.59.0 0 0 2.014-1.934l2.244.752a14.339 14.339.0 0 0 1.479-2.459l-1.8-1.49c.347-.852.594-1.737.737-2.641l2.335-.427c.097-.944.097-1.895.0-2.839l-2.335-.427a11.946 11.946.0 0 0-.737-2.641l1.8-1.49a14.339 14.339.0 0 0-1.479-2.459l-2.244.751a12.627 12.627.0 0 0-2.014-1.933l.783-2.155a15.261 15.261.0 0 0-2.562-1.42l-1.552 1.729a13.254 13.254.0 0 0-2.751-.708l-.444-2.242zm-1.479 11.518c1.665.0 3.017 1.298 3.017 2.896.0 1.599-1.352 2.897-3.017 2.897-1.665.0-3.017-1.298-3.017-2.897.0-1.598 1.352-2.896 3.017-2.896z" fill="#7a7a7a"/></svg><svg viewBox="0 0 92 63" fill-rule="evenodd" clip-rule="evenodd" stroke-linecap="round" stroke-linejoin="round" stroke-miterlimit="1.5" id="graph-icon" xmlns="http://www.w3.org/2000/svg"><path d="M4.879 55.749c20.897-.682 43.461-11.172 43.833-50.258 33.791-1.807 38.958 29.05 38.491 50.44-10.475 9.087-96.437 5.31-82.324-.182z" fill="#eaeff3"/><path d="M4.583 53.71c22.788 1.566 44.653-9.963 44.129-48.223 33.791-1.72 38.464 24.789 37.997 45.153" fill="none" stroke="#818181" stroke-width="3"/><circle cx="5.082" cy="53.88" r="4.132" fill="#fff" stroke="#5e5e5e"/><circle cx="48.811" cy="5.587" r="4.132" fill="#fff" stroke="#5e5e5e"/><circle cx="86.436" cy="53.88" r="4.132" fill="#fff" stroke="#5e5e5e"/></svg><svg viewBox="0 0 441 87" fill-rule="evenodd" clip-rule="evenodd" stroke-linejoin="round" stroke-miterlimit="1.414" id="logo" xmlns="http://www.w3.org/2000/svg"><path d="M20.48 6.656c4.053.0 7.573.672 10.56 2.016 2.987 1.344 5.291 3.264 6.912 5.76 1.621 2.496 2.432 5.429 2.432 8.8.0 3.371-.811 6.293-2.432 8.768-1.621 2.475-3.925 4.384-6.912 5.728-2.987 1.344-6.507 2.016-10.56 2.016h-7.808v11.712H0v-44.8h20.48zm-.768 23.104c2.603.0 4.565-.565 5.888-1.696 1.323-1.131 1.984-2.741 1.984-4.832.0-2.091-.661-3.712-1.984-4.864-1.323-1.152-3.285-1.728-5.888-1.728h-7.04v13.12h7.04zM83.072 16.768v34.688H71.488v-3.712a12.458 12.458.0 0 1-4.608 3.2 15.044 15.044.0 0 1-5.696 1.088c-4.48.0-8.053-1.323-10.72-3.968s-4-6.613-4-11.904V16.768h12.16v17.408c0 2.603.491 4.501 1.472 5.696.981 1.195 2.411 1.792 4.288 1.792 1.92.0 3.488-.672 4.704-2.016 1.216-1.344 1.824-3.403 1.824-6.176V16.768h12.16zM136.064 16.192c4.267.0 7.669 1.28 10.208 3.84 2.539 2.56 3.808 6.421 3.808 11.584v19.84h-12.16V33.6c0-2.432-.459-4.224-1.376-5.376-.917-1.152-2.208-1.728-3.872-1.728-1.835.0-3.307.64-4.416 1.92-1.109 1.28-1.664 3.221-1.664 5.824v17.216h-12.16V33.6c0-4.736-1.749-7.104-5.248-7.104-1.877.0-3.371.64-4.48 1.92-1.109 1.28-1.664 3.221-1.664 5.824v17.216H90.88V16.768h11.584v3.648a12.19 12.19.0 0 1 4.576-3.168c1.771-.704 3.701-1.056 5.792-1.056 2.432.0 4.608.448 6.528 1.344 1.92.896 3.477 2.261 4.672 4.096 1.365-1.749 3.093-3.093 5.184-4.032 2.091-.939 4.373-1.408 6.848-1.408zM179.584 16.192c3.157.0 6.027.736 8.608 2.208 2.581 1.472 4.629 3.563 6.144 6.272 1.515 2.709 2.272 5.856 2.272 9.44.0 3.584-.757 6.731-2.272 9.44-1.515 2.709-3.563 4.8-6.144 6.272-2.581 1.472-5.451 2.208-8.608 2.208-4.053.0-7.275-1.216-9.664-3.648v15.488h-12.16V16.768h11.584v3.456c2.261-2.688 5.675-4.032 10.24-4.032zm-2.56 26.176c2.133.0 3.883-.736 5.248-2.208 1.365-1.472 2.048-3.488 2.048-6.048s-.683-4.576-2.048-6.048c-1.365-1.472-3.115-2.208-5.248-2.208s-3.883.736-5.248 2.208c-1.365 1.472-2.048 3.488-2.048 6.048s.683 4.576 2.048 6.048c1.365 1.472 3.115 2.208 5.248 2.208zM218.56 52.352c-3.627.0-7.147-.448-10.56-1.344-3.413-.896-6.187-2.091-8.32-3.584l4.16-9.344c2.005 1.323 4.331 2.389 6.976 3.2 2.645.811 5.248 1.216 7.808 1.216 4.864.0 7.296-1.216 7.296-3.648.0-1.28-.693-2.229-2.08-2.848-1.387-.619-3.616-1.269-6.688-1.952-3.371-.725-6.187-1.504-8.448-2.336-2.261-.832-4.203-2.165-5.824-4-1.621-1.835-2.432-4.309-2.432-7.424.0-2.731.747-5.195 2.24-7.392 1.493-2.197 3.723-3.936 6.688-5.216 2.965-1.28 6.603-1.92 10.912-1.92 2.944.0 5.845.331 8.704.992 2.859.661 5.376 1.632 7.552 2.912l-3.904 9.408c-4.267-2.304-8.405-3.456-12.416-3.456-2.517.0-4.352.373-5.504 1.12-1.152.747-1.728 1.717-1.728 2.912.0 1.195.683 2.091 2.048 2.688s3.563 1.216 6.592 1.856c3.413.725 6.24 1.504 8.48 2.336 2.24.832 4.181 2.155 5.824 3.968 1.643 1.813 2.464 4.277 2.464 7.392.0 2.688-.747 5.12-2.24 7.296-1.493 2.176-3.733 3.915-6.72 5.216-2.987 1.301-6.613 1.952-10.88 1.952zM267.584 50.048c-1.024.64-2.272 1.131-3.744 1.472-1.472.341-3.04.512-4.704.512-4.523.0-8-1.109-10.432-3.328-2.432-2.219-3.648-5.525-3.648-9.92V27.136H240v-9.088h5.056V9.024h12.16v9.024h7.936v9.088h-7.936v11.52c0 1.237.331 2.208.992 2.912.661.704 1.547 1.056 2.656 1.056 1.408.0 2.645-.363 3.712-1.088l3.008 8.512zM287.04 16.192c5.76.0 10.155 1.312 13.184 3.936 3.029 2.624 4.544 6.645 4.544 12.064v19.264H293.44v-4.48c-1.749 3.371-5.163 5.056-10.24 5.056-2.688.0-5.013-.469-6.976-1.408s-3.445-2.208-4.448-3.808c-1.003-1.6-1.504-3.424-1.504-5.472.0-3.285 1.259-5.835 3.776-7.648 2.517-1.813 6.4-2.72 11.648-2.72h6.912c-.213-3.669-2.667-5.504-7.36-5.504-1.664.0-3.349.267-5.056.8-1.707.533-3.157 1.269-4.352 2.208l-4.096-8.256c1.92-1.28 4.256-2.272 7.008-2.976a33.323 33.323.0 0 1 8.288-1.056zm-.448 28.16c1.408.0 2.645-.341 3.712-1.024 1.067-.683 1.835-1.685 2.304-3.008v-3.008h-5.248c-3.541.0-5.312 1.173-5.312 3.52.0 1.067.405 1.92 1.216 2.56.811.64 1.92.96 3.328.96zM336.384 50.048c-1.024.64-2.272 1.131-3.744 1.472-1.472.341-3.04.512-4.704.512-4.523.0-8-1.109-10.432-3.328-2.432-2.219-3.648-5.525-3.648-9.92V27.136H308.8v-9.088h5.056V9.024h12.16v9.024h7.936v9.088h-7.936v11.52c0 1.237.331 2.208.992 2.912.661.704 1.547 1.056 2.656 1.056 1.408.0 2.645-.363 3.712-1.088l3.008 8.512zM341.056 16.768h12.16v34.688h-12.16V16.768zm6.08-3.84c-2.219.0-4.011-.619-5.376-1.856-1.365-1.237-2.048-2.773-2.048-4.608.0-1.835.683-3.371 2.048-4.608C343.125.619 344.917.0 347.136.0c2.219.0 4.011.587 5.376 1.76 1.365 1.173 2.048 2.677 2.048 4.512.0 1.92-.683 3.509-2.048 4.768s-3.157 1.888-5.376 1.888zM378.496 52.032c-3.712.0-7.061-.768-10.048-2.304-2.987-1.536-5.323-3.669-7.008-6.4-1.685-2.731-2.528-5.824-2.528-9.28.0-3.413.843-6.485 2.528-9.216 1.685-2.731 4.011-4.853 6.976-6.368 2.965-1.515 6.325-2.272 10.08-2.272s7.125.757 10.112 2.272c2.987 1.515 5.312 3.627 6.976 6.336 1.664 2.709 2.496 5.792 2.496 9.248.0 3.456-.832 6.549-2.496 9.28-1.664 2.731-3.989 4.864-6.976 6.4-2.987 1.536-6.357 2.304-10.112 2.304zm0-9.664c2.133.0 3.883-.736 5.248-2.208 1.365-1.472 2.048-3.509 2.048-6.112.0-2.56-.683-4.565-2.048-6.016-1.365-1.451-3.115-2.176-5.248-2.176s-3.883.725-5.248 2.176c-1.365 1.451-2.048 3.456-2.048 6.016.0 2.603.683 4.64 2.048 6.112 1.365 1.472 3.115 2.208 5.248 2.208zM426.304 16.192c4.309.0 7.776 1.28 10.4 3.84 2.624 2.56 3.936 6.421 3.936 11.584v19.84h-12.16V33.6c0-4.736-1.899-7.104-5.696-7.104-2.091.0-3.765.683-5.024 2.048s-1.888 3.413-1.888 6.144v16.768h-12.16V16.768h11.584v3.776c1.365-1.408 2.987-2.485 4.864-3.232 1.877-.747 3.925-1.12 6.144-1.12zM11.803 82.715h-7l-1.38 3.24H.743l6.3-14h2.56l6.32 14h-2.72l-1.4-3.24zm-.86-2.04-2.64-6.12-2.62 6.12h5.26zM49.423 86.155c-1.933.0-3.44-.543-4.52-1.63-1.08-1.086-1.62-2.643-1.62-4.67v-7.9h2.6v7.8c0 2.747 1.187 4.12 3.56 4.12 2.36.0 3.54-1.373 3.54-4.12v-7.8h2.56v7.9c0 2.027-.537 3.584-1.61 4.67-1.073 1.087-2.577 1.63-4.51 1.63zM85.183 71.955h6.12c1.493.0 2.82.29 3.98.87 1.16.58 2.06 1.4 2.7 2.46.64 1.06.96 2.284.96 3.67.0 1.387-.32 2.61-.96 3.67-.64 1.06-1.54 1.88-2.7 2.46-1.16.58-2.487.87-3.98.87h-6.12v-14zm6 11.8c1.027.0 1.93-.196 2.71-.59a4.217 4.217.0 0 0 1.8-1.68c.42-.726.63-1.57.63-2.53.0-.96-.21-1.803-.63-2.53a4.23 4.23.0 0 0-1.8-1.68c-.78-.393-1.683-.59-2.71-.59h-3.4v9.6h3.4zM127.703 71.955h2.6v14h-2.6zM166.623 86.155c-1.427.0-2.713-.31-3.86-.93a6.883 6.883.0 0 1-2.7-2.58c-.653-1.1-.98-2.33-.98-3.69.0-1.36.327-2.59.98-3.69a6.883 6.883.0 0 1 2.7-2.58c1.147-.62 2.433-.93 3.86-.93s2.713.31 3.86.93a6.907 6.907.0 0 1 2.7 2.57c.653 1.094.98 2.327.98 3.7.0 1.374-.327 2.607-.98 3.7a6.9 6.9.0 0 1-2.7 2.57c-1.147.62-2.433.93-3.86.93zm0-2.28c.933.0 1.773-.21 2.52-.63a4.552 4.552.0 0 0 1.76-1.76c.427-.753.64-1.596.64-2.53.0-.933-.213-1.776-.64-2.53a4.559 4.559.0 0 0-1.76-1.76c-.747-.42-1.587-.63-2.52-.63s-1.773.21-2.52.63a4.559 4.559.0 0 0-1.76 1.76c-.427.754-.64 1.597-.64 2.53.0.934.213 1.777.64 2.53a4.552 4.552.0 0 0 1.76 1.76c.747.42 1.587.63 2.52.63zM240.203 71.955c1.213.0 2.27.2 3.17.6.9.4 1.59.974 2.07 1.72.48.747.72 1.634.72 2.66.0 1.014-.24 1.897-.72 2.65-.48.754-1.17 1.33-2.07 1.73-.9.4-1.957.6-3.17.6h-3.16v4.04h-2.6v-14h5.76zm-.12 7.76c1.133.0 1.993-.24 2.58-.72s.88-1.166.88-2.06c0-.893-.293-1.58-.88-2.06s-1.447-.72-2.58-.72h-3.04v5.56h3.04zM274.763 71.955h2.6v11.8h7.32v2.2h-9.92v-14zM318.563 86.155c-1.933.0-3.44-.543-4.52-1.63-1.08-1.086-1.62-2.643-1.62-4.67v-7.9h2.6v7.8c0 2.747 1.187 4.12 3.56 4.12 2.36.0 3.54-1.373 3.54-4.12v-7.8h2.56v7.9c0 2.027-.537 3.584-1.61 4.67-1.073 1.087-2.577 1.63-4.51 1.63zM363.883 78.795h2.46v5.58a7.796 7.796.0 0 1-2.52 1.32 9.66 9.66.0 0 1-2.96.46c-1.427.0-2.713-.31-3.86-.93a6.9 6.9.0 0 1-2.7-2.57c-.653-1.093-.98-2.326-.98-3.7.0-1.373.327-2.606.98-3.7a6.894 6.894.0 0 1 2.71-2.57c1.153-.62 2.45-.93 3.89-.93 1.173.0 2.24.194 3.2.58.96.387 1.767.954 2.42 1.7l-1.64 1.6c-1.067-1.066-2.353-1.6-3.86-1.6-.987.0-1.863.207-2.63.62a4.525 4.525.0 0 0-1.8 1.74c-.433.747-.65 1.6-.65 2.56.0.934.217 1.774.65 2.52a4.65 4.65.0 0 0 1.8 1.76c.767.427 1.637.64 2.61.64 1.093.0 2.053-.24 2.88-.72v-4.36zM395.763 71.955h2.6v14h-2.6zM440.583 71.955v14h-2.14l-7.72-9.48v9.48h-2.58v-14h2.14l7.72 9.48v-9.48h2.58z" fill="#fff" fill-rule="nonzero"/></svg><svg viewBox="0 0 65 21" fill-rule="evenodd" clip-rule="evenodd" stroke-linejoin="round" stroke-miterlimit="1.414" id="midi-icon" xmlns="http://www.w3.org/2000/svg"><g fill="#d6d6d6" fill-rule="nonzero"><path d="M0 21h5.7V9l5.34 8.16h.12l5.37-8.22V21h5.79V0h-6.15l-5.01 8.13L6.15.0H0v21zM26.16.0h5.85v21h-5.85zM35.85 21h7.98c7.56.0 11.97-4.5 11.97-10.56v-.06C55.8 4.32 51.45.0 43.95.0h-8.1v21zm5.82-5.16V5.16h2.37c3.48.0 5.79 1.95 5.79 5.31v.06c0 3.39-2.31 5.31-5.79 5.31h-2.37zM58.92.0h5.85v21h-5.85z"/></g></svg><svg viewBox="0 0 71 49" fill-rule="evenodd" clip-rule="evenodd" stroke-linecap="round" stroke-linejoin="round" stroke-miterlimit="1.5" id="modes-icon" xmlns="http://www.w3.org/2000/svg"><g fill="#818181" fill-rule="nonzero"><path d="M1.163 14.38h7.22c3.34.0 5.3-1.46 5.3-3.86v-.04c0-1.9-1.08-2.86-2.78-3.42 1.24-.54 2.16-1.5 2.16-3.12V3.9c0-.96-.34-1.7-.9-2.26-.82-.82-2.06-1.26-3.82-1.26h-7.18v14zm3.78-8.42V3.5h2.52c1.16.0 1.76.44 1.76 1.2v.04c0 .82-.66 1.22-1.84 1.22h-2.44zm0 5.3V8.68h2.96c1.3.0 1.9.5 1.9 1.26v.04c0 .82-.68 1.28-1.86 1.28h-3zM15.463 14.38h3.88v-4h1.92c3.48.0 6.02-1.74 6.02-5.04V5.3c0-3.1-2.28-4.92-5.82-4.92h-6v14zm3.88-7.04v-3.7h1.82c1.4.0 2.24.64 2.24 1.84v.04c0 1.1-.84 1.82-2.22 1.82h-1.84zM28.923 14.38h3.8v-8l3.56 5.44h.08l3.58-5.48v8.04h3.86v-14h-4.1l-3.34 5.42-3.34-5.42h-4.1v14zm14.425 32h3.88v-5.32h4.98v5.32h3.88v-14h-3.88v5.24h-4.98v-5.24h-3.88v14zM57.968 46.38h10.04v-3.02h-5.02l5.02-5.3v-2.5h-9.86v3.02h4.82l-5 5.3v2.5z"/></g><path d="M68.493 2.549 2.433 46.971" fill="none" stroke="#d6d6d6" stroke-width="4"/></svg><svg viewBox="0 0 75 75" fill-rule="evenodd" clip-rule="evenodd" stroke-linecap="round" stroke-linejoin="round" stroke-miterlimit="1.5" id="resize-window-icon" xmlns="http://www.w3.org/2000/svg"><path fill="none" stroke="#d6d6d6" stroke-width="4" d="M2.357 2.139h69.874v69.874H2.357z"/><path d="M12.22 51.322v10.446h9.643M62.545 21.79V11.343h-9.643M62.344 11.745 12.823 61.266" fill="none" stroke="#d6d6d6" stroke-width="4"/><circle cx="44.263" cy="61.919" r="2.109" fill="#d6d6d6"/><circle cx="53.369" cy="61.919" r="2.109" fill="#d6d6d6"/><circle cx="53.369" cy="52.756" r="2.109" fill="#d6d6d6"/><circle cx="62.586" cy="52.756" r="2.109" fill="#d6d6d6"/><circle cx="62.586" cy="43.487" r="2.109" fill="#d6d6d6"/><circle cx="62.586" cy="61.919" r="2.109" fill="#d6d6d6"/></svg><svg viewBox="0 0 78 73" fill-rule="evenodd" clip-rule="evenodd" stroke-linecap="round" stroke-linejoin="round" stroke-miterlimit="1.5" id="sidechain-icon" xmlns="http://www.w3.org/2000/svg"><path d="M2.006 61.427c23.317.888 32.746-35.296 37.849-46.701C45.165.889 52.946.162 77.043.683l-.051 71.22-74.932.092-.054-10.568z" fill="#858585"/><path d="M1.153 71.995l.156-56.45c1.864-2.796 4.502-3.8 7.348-3.667 11.91.074 18.451 23.766 26.737 40.688 4.367 10.112 9.385 16.925 14.638 19.38l-48.879.049z" fill="#cdcdcd"/></svg></svg>